<svg width="212" height="36" fill="none" xmlns="http://www.w3.org/2000/svg"><path d="M40.222 18.048L31.361.325h-4.466l-6.593 13.257L13.709.325H9.242L3.996 10.817l-3.615 7.23 8.861 17.724h4.466L4.848 18.048l2.198-4.395L18.104 35.7h4.395L9.242 9.186l2.198-4.395 6.664 13.257 8.861 17.723h4.467l8.79-17.723zm-17.652 0L29.163 4.79l6.593 13.257-6.593 13.257-6.593-13.257zM78.576 16.914v9.074h-5.601v-8.223c0-2.27-.922-3.262-2.41-3.262-1.63 0-2.765 1.064-2.765 3.545v7.87h-5.6v-8.153c0-2.27-.922-3.262-2.411-3.262-1.63 0-2.836 1.064-2.836 3.545v7.87h-5.6v-15.81h5.317v1.701c1.205-1.276 2.906-1.914 4.75-1.914 2.197 0 4.04.78 5.104 2.482 1.276-1.56 3.26-2.482 5.53-2.482 3.757-.07 6.522 2.056 6.522 7.019zM97.008 17.126v8.862h-5.176v-2.056c-.78 1.56-2.41 2.34-4.678 2.34-3.829 0-5.956-2.127-5.956-4.892 0-2.907 2.127-4.75 7.09-4.75h3.19c-.07-1.63-1.205-2.552-3.403-2.552-1.56 0-3.261.496-4.324 1.347l-1.844-3.757c1.844-1.205 4.538-1.844 7.019-1.844 5.104 0 8.082 2.269 8.082 7.302zm-5.6 3.758v-1.347h-2.411c-1.773 0-2.41.638-2.41 1.63 0 .922.78 1.63 2.055 1.63 1.276-.07 2.34-.637 2.765-1.913zM117.85 10.108v12.973c0 6.026-3.403 8.862-9.358 8.862-3.048 0-5.955-.709-7.869-2.056l2.056-3.899c1.347 1.064 3.474 1.701 5.388 1.701 2.977 0 4.253-1.346 4.253-3.828v-.496c-1.063 1.276-2.693 1.843-4.749 1.843-4.254 0-7.799-2.977-7.799-7.656 0-4.68 3.545-7.657 7.799-7.657 2.197 0 3.899.71 4.962 2.198v-1.985h5.317zm-5.53 7.373c0-1.914-1.488-3.261-3.473-3.261-1.985 0-3.474 1.276-3.474 3.26 0 1.915 1.489 3.262 3.474 3.262s3.473-1.347 3.473-3.261zM136.353 17.126v8.862h-5.175v-2.056c-.78 1.56-2.41 2.34-4.679 2.34-3.828 0-5.955-2.127-5.955-4.892 0-2.907 2.127-4.75 7.089-4.75h3.19c-.07-1.63-1.205-2.552-3.402-2.552-1.56 0-3.261.496-4.325 1.347l-1.843-3.757c1.843-1.205 4.537-1.844 7.018-1.844 5.105 0 8.082 2.269 8.082 7.302zm-5.6 3.758v-1.347h-2.411c-1.772 0-2.41.638-2.41 1.63 0 .922.78 1.63 2.056 1.63 1.276-.07 2.339-.637 2.765-1.913zM156.416 18.332c0 4.608-3.261 7.798-7.586 7.798-2.765 0-5.104-1.347-6.309-3.757v3.615h-1.418V4.224h1.489v9.925c1.205-2.268 3.544-3.615 6.238-3.615 4.325 0 7.586 3.19 7.586 7.798zm-1.418 0c0-3.828-2.694-6.452-6.168-6.452-3.544 0-6.167 2.624-6.167 6.452s2.623 6.451 6.167 6.451c3.474 0 6.168-2.623 6.168-6.451zM172.012 16.276v9.712h-1.418v-2.694c-.992 1.773-2.835 2.836-5.529 2.836-3.403 0-5.53-1.772-5.53-4.395 0-2.34 1.489-4.254 5.742-4.254h5.246v-1.205c0-2.836-1.559-4.396-4.537-4.396-2.126 0-4.041.78-5.246 1.915l-.709-1.064c1.56-1.347 3.758-2.197 6.168-2.197 3.686 0 5.813 1.985 5.813 5.742zm-1.489 5.175v-2.836h-5.246c-3.19 0-4.253 1.347-4.253 3.049 0 1.985 1.559 3.26 4.253 3.26 2.553 0 4.325-1.275 5.246-3.473zM191.72 17.056v8.932h-1.488v-8.861c0-3.474-1.843-5.247-4.963-5.247-3.615 0-5.813 2.34-5.813 5.955v8.153h-1.418V10.675h1.418v3.332c.993-2.127 3.19-3.403 6.097-3.403 3.686-.07 6.167 2.127 6.167 6.452zM203.205 17.765l-3.97 3.615v4.537h-1.489V4.224h1.489v15.384l9.783-8.933h1.844l-6.593 6.168 7.231 9.145h-1.844l-6.451-8.223z" fill="#fff"/></svg>