<svg width="178" height="31" fill="none" xmlns="http://www.w3.org/2000/svg"><path d="M33.916 15.29L26.462.382h-3.758l-5.546 11.152L11.612.382H7.855L3.442 9.208.4 15.29 7.855 30.2h3.757L4.157 15.29l1.849-3.697 9.303 18.547h3.698L7.855 7.836l1.848-3.698 5.606 11.153L22.764 30.2h3.757l7.395-14.91zm-14.85 0l5.547-11.152 5.546 11.153-5.546 11.152-5.546-11.152z" fill="url(#paint0_linear)"/><path d="M66.18 14.336v7.634h-4.711v-6.918c0-1.908-.776-2.743-2.028-2.743-1.372 0-2.326.894-2.326 2.982v6.62h-4.711v-6.859c0-1.908-.776-2.743-2.028-2.743-1.372 0-2.385.894-2.385 2.982v6.62h-4.712V8.61h4.473v1.432c1.014-1.074 2.445-1.61 3.996-1.61 1.849 0 3.4.655 4.294 2.087 1.073-1.312 2.743-2.088 4.651-2.088 3.161-.06 5.487 1.73 5.487 5.904zM81.686 14.515v7.455h-4.354v-1.73c-.656 1.313-2.027 1.969-3.936 1.969-3.22 0-5.01-1.79-5.01-4.115 0-2.446 1.79-3.996 5.964-3.996h2.684c-.06-1.372-1.014-2.147-2.863-2.147-1.312 0-2.743.417-3.638 1.133l-1.55-3.16c1.55-1.015 3.817-1.551 5.904-1.551 4.294 0 6.799 1.908 6.799 6.142zm-4.712 3.161v-1.133h-2.027c-1.491 0-2.028.537-2.028 1.372 0 .775.656 1.371 1.73 1.371 1.073-.06 1.968-.536 2.325-1.61zM99.22 8.611v10.914c0 5.07-2.864 7.455-7.873 7.455-2.564 0-5.01-.597-6.62-1.73l1.73-3.28c1.133.895 2.922 1.431 4.532 1.431 2.505 0 3.578-1.133 3.578-3.22v-.418c-.894 1.074-2.266 1.551-3.995 1.551-3.579 0-6.56-2.505-6.56-6.44 0-3.937 2.981-6.442 6.56-6.442 1.848 0 3.28.597 4.174 1.85v-1.67h4.473zm-4.653 6.203c0-1.61-1.252-2.744-2.922-2.744-1.67 0-2.922 1.074-2.922 2.744 0 1.61 1.252 2.743 2.922 2.743 1.67 0 2.922-1.133 2.922-2.743zM114.784 14.515v7.455h-4.353v-1.73c-.656 1.313-2.028 1.969-3.936 1.969-3.221 0-5.01-1.79-5.01-4.115 0-2.446 1.789-3.996 5.964-3.996h2.684c-.06-1.372-1.014-2.147-2.863-2.147-1.312 0-2.743.417-3.638 1.133l-1.55-3.16c1.55-1.015 3.816-1.551 5.904-1.551 4.294 0 6.798 1.908 6.798 6.142zm-4.711 3.161v-1.133h-2.028c-1.491 0-2.027.537-2.027 1.372 0 .775.656 1.371 1.729 1.371 1.074-.06 1.968-.536 2.326-1.61zM131.662 15.53c0 3.876-2.744 6.56-6.381 6.56-2.326 0-4.294-1.134-5.308-3.161v3.041h-1.193V3.661h1.253v8.35c1.013-1.909 2.981-3.042 5.248-3.042 3.637 0 6.381 2.684 6.381 6.56zm-1.193 0c0-3.221-2.266-5.428-5.188-5.428-2.982 0-5.189 2.207-5.189 5.427 0 3.22 2.207 5.427 5.189 5.427 2.922 0 5.188-2.206 5.188-5.427zM144.782 13.8v8.17h-1.193v-2.266c-.835 1.49-2.385 2.385-4.651 2.385-2.863 0-4.652-1.49-4.652-3.697 0-1.968 1.252-3.578 4.83-3.578h4.414V13.8c0-2.386-1.312-3.698-3.817-3.698-1.789 0-3.399.656-4.413 1.61l-.597-.894c1.312-1.133 3.161-1.849 5.189-1.849 3.101 0 4.89 1.67 4.89 4.83zm-1.252 4.353v-2.385h-4.414c-2.683 0-3.578 1.133-3.578 2.564 0 1.67 1.312 2.744 3.578 2.744 2.147 0 3.638-1.074 4.414-2.923zM161.361 14.456v7.514h-1.252v-7.455c0-2.922-1.551-4.413-4.175-4.413-3.041 0-4.89 1.968-4.89 5.01v6.858h-1.193V9.088h1.193v2.803c.835-1.789 2.684-2.862 5.129-2.862 3.101-.06 5.188 1.789 5.188 5.427zM171.022 15.052l-3.339 3.042v3.816h-1.253V3.661h1.253v12.942l8.23-7.515h1.55l-5.546 5.189L178 21.97h-1.551l-5.427-6.918z" fill="#202020"/><defs><linearGradient id="paint0_linear" x1="29.29" y1="3.188" x2="5.054" y2="27.425" gradientUnits="userSpaceOnUse"><stop stop-color="#0086FF"/><stop offset="1" stop-color="#003C68"/></linearGradient></defs></svg>