<svg width="13" height="13" viewBox="0 0 13 13" fill="none" xmlns="http://www.w3.org/2000/svg">
<path d="M1.46299 0.811001L3.66599 0.320001C4.18199 0.203001 4.69699 0.460001 4.88499 0.930001L5.91599 3.32C6.10399 3.742 5.98599 4.258 5.61199 4.562L4.67399 5.336C5.32999 6.554 6.36199 7.56 7.57999 8.24L8.35399 7.303C8.65799 6.928 9.17399 6.81 9.59599 6.998L11.986 8.006C12.456 8.216 12.713 8.732 12.596 9.248L12.104 11.451C11.987 11.943 11.541 12.271 11.049 12.271C5.30699 12.271 0.618988 7.631 0.618988 1.865C0.618988 1.373 0.970988 0.928001 1.46299 0.810001V0.811001ZM11.003 11.147L11.494 9.037L9.19699 8.054L7.88499 9.647C5.56499 8.546 4.36899 7.35 3.26799 5.03L4.86199 3.718L3.87699 1.421L1.74399 1.913C1.76799 6.999 5.91599 11.123 11.002 11.147H11.003Z" fill="white"/>
</svg>
