<svg width="12" height="12" viewBox="0 0 12 12" fill="none" xmlns="http://www.w3.org/2000/svg">
<path d="M9.526 2.275C9.04729 1.78421 8.47489 1.39455 7.84275 1.12916C7.2106 0.86376 6.5316 0.728024 5.846 0.730002C2.986 0.729002 0.643003 3.072 0.643003 5.932C0.643003 6.869 0.901003 7.76 1.346 8.533L0.619003 11.23L3.362 10.526C4.135 10.925 4.979 11.159 5.846 11.159C8.729 11.159 11.119 8.815 11.119 5.956C11.119 4.55 10.51 3.261 9.526 2.276V2.275ZM5.846 10.268C5.07032 10.2654 4.30954 10.0548 3.643 9.658L3.503 9.564L1.862 10.01L2.307 8.416L2.19 8.252C1.76446 7.55265 1.53733 6.75064 1.533 5.932C1.533 3.564 3.479 1.619 5.869 1.619C7.018 1.619 8.096 2.064 8.916 2.885C9.736 3.705 10.229 4.783 10.229 5.955C10.229 8.322 8.237 10.268 5.846 10.268V10.268ZM8.236 7.033C8.096 6.963 7.463 6.658 7.346 6.611C7.229 6.564 7.135 6.541 7.041 6.681C6.971 6.799 6.713 7.104 6.643 7.197C6.549 7.267 6.479 7.291 6.362 7.221C5.588 6.846 5.096 6.541 4.58 5.674C4.44 5.439 4.721 5.463 4.955 4.971C5.002 4.877 4.979 4.807 4.955 4.736C4.932 4.666 4.651 4.033 4.557 3.776C4.44 3.518 4.346 3.541 4.252 3.541H4.018C3.95069 3.53959 3.88396 3.55364 3.82293 3.58207C3.76191 3.6105 3.70822 3.65256 3.666 3.705C3.549 3.845 3.221 4.15 3.221 4.783C3.221 5.439 3.666 6.049 3.737 6.143C3.807 6.213 4.651 7.525 5.963 8.088C6.783 8.463 7.112 8.486 7.533 8.416C7.768 8.393 8.283 8.111 8.401 7.806C8.518 7.502 8.518 7.244 8.471 7.197C8.448 7.127 8.354 7.104 8.237 7.033H8.236Z" fill="white"/>
</svg>
