<svg width="1604" height="831" fill="none" xmlns="http://www.w3.org/2000/svg"><g opacity=".31" fill="#0072BA"><path d="M724.828 830a.401.401 0 01-.359 0l-28.583-31.012a.682.682 0 010-.4l7.625-41.429a.477.477 0 01.359-.399l9.142-2.635a.523.523 0 01.519 0l20.718 22.471 5.548-29.974a.596.596 0 01.24-.359l9.221-2.675a.681.681 0 01.479 0l28.502 31.013a.433.433 0 010 .439l-7.664 41.35s0 .319-.359.319l-9.102 2.634a.512.512 0 01-.479 0l-49.22-53.483-1.677 9.06 42.554 46.459a.512.512 0 010 .479.554.554 0 01-.359.359l-9.022 2.594a.514.514 0 01-.519 0l-34.929-37.837-1.677 9.06 28.383 30.853a.564.564 0 010 .479.486.486 0 01-.359.359l-9.102 2.634.12-.359zm-27.944-31.691l28.223 30.613 7.984-2.315-27.943-30.413a.437.437 0 010-.439l1.916-10.338a.478.478 0 01.359-.359.513.513 0 01.479 0l35.408 38.396 7.984-2.315-42.194-45.82a.55.55 0 010-.439l1.916-10.297a.477.477 0 01.359-.399.436.436 0 01.479 0l49.779 54.042 8.503-2.435 7.545-40.951-28.183-30.613-8.503 2.435-5.669 30.733a.513.513 0 01-.368.38.52.52 0 01-.51-.141l-21.157-22.99-8.582 2.475-7.825 41.19zm66.226 10.816a.516.516 0 01-.359 0l-21.397-23.229a.568.568 0 010-.439l5.749-31.012a.477.477 0 01.359-.399.433.433 0 01.479 0l21.396 23.189a.552.552 0 010 .439l-5.748 31.052a.483.483 0 01-.359.36l-.12.039zm-20.838-23.947l20.519 22.311 5.509-29.815-20.519-22.311-5.509 29.815zM38.94 596.51a.485.485 0 01-.36 0l-28.542-31.013a.718.718 0 010-.399l7.625-41.43a.609.609 0 01.359-.399l9.181-2.634a.44.44 0 01.52 0L48.4 543.146l5.549-29.975a.44.44 0 01.24-.359l8.981-2.754a.445.445 0 01.44 0L92.15 541.07a.564.564 0 010 .44l-7.664 41.349a.441.441 0 01-.36.32l-9.06 2.634a.524.524 0 01-.48 0l-49.22-53.483-1.677 9.06 42.554 46.259a.518.518 0 010 .479.476.476 0 01-.32.359l-9.061 2.594a.434.434 0 01-.479 0l-34.93-37.877-1.716 9.1 28.423 30.853a.557.557 0 010 .479.644.644 0 01-.36.359l-9.101 2.634.24-.119zm-27.944-31.691l28.223 30.613 7.984-2.315-27.944-30.414a.436.436 0 010-.439l1.877-10.337a.557.557 0 01.359-.359.559.559 0 01.519 0l35.408 38.396 7.984-2.315-42.434-45.661a.436.436 0 010-.439l1.916-10.297a.44.44 0 01.32-.399.478.478 0 01.518 0l49.78 54.042 8.462-2.435 7.585-40.95-28.383-30.494-8.503 2.435-5.708 30.733a.437.437 0 01-.32.399.477.477 0 01-.518 0l-21.197-22.99-8.543 2.475-7.385 40.751zm66.226 10.816a.713.713 0 01-.4 0l-21.356-23.229a.441.441 0 010-.439l5.748-31.013a.436.436 0 01.32-.399.477.477 0 01.519 0l21.077 23.19a.599.599 0 010 .439l-5.749 31.052a.478.478 0 01-.359.359l.2.04zm-20.878-23.948l20.479 22.232 5.508-29.815-20.518-22.072-5.469 29.655z"/><path d="M91.832 541.988a.4.4 0 01-.359 0l-28.542-30.972a.482.482 0 010-.519l7.624-41.43a.555.555 0 01.32-.399l9.181-2.634a.515.515 0 01.52 0l20.717 22.471 5.549-29.975a.433.433 0 01.239-.359l9.222-2.634a.512.512 0 01.479 0l28.502 30.972a.445.445 0 010 .439l-7.665 41.35a.565.565 0 01-.359.359l-9.101 2.594a.555.555 0 01-.439 0l-49.3-53.124-1.677 9.061 42.554 46.259a.56.56 0 010 .479.568.568 0 01-.24.079l-9.022 2.595a.558.558 0 01-.519 0l-34.929-37.878-1.676 9.061 28.382 30.892a.437.437 0 010 .439.437.437 0 01-.359.359l-9.102 2.635v-.12zM63.89 510.297l28.223 30.653 7.984-2.315-27.944-30.453a.441.441 0 010-.439l1.916-10.338a.482.482 0 01.36-.359.526.526 0 01.479 0l35.408 38.396 7.984-2.315-42.474-45.54a.562.562 0 010-.439l1.916-10.298a.482.482 0 01.36-.399.442.442 0 01.478 0l49.659 54.202 8.503-2.435 7.545-40.951-28.183-30.613-8.503 2.435-5.668 30.733a.52.52 0 01-.359.399.562.562 0 01-.519 0l-21.157-23.03-8.583 2.475-7.425 40.631zm66.226 10.817a.403.403 0 01-.36 0l-21.516-23.03a.555.555 0 010-.439l5.748-31.013a.52.52 0 01.36-.399.44.44 0 01.479 0l21.356 23.19a.516.516 0 010 .359l-5.748 31.052a.603.603 0 01-.359.399l.04-.119zm-20.838-23.948l20.518 22.311 5.23-29.376-20.519-22.311-5.229 29.376zM218.375 505.708a.727.727 0 01-.359 0l-28.502-31.012a.479.479 0 010-.559l7.585-41.39a.565.565 0 01.359-.359l9.181-2.634a.44.44 0 01.519 0l20.678 22.511 5.389-30.015a.391.391 0 01.24-.319l9.221-2.674a.437.437 0 01.439 0l28.662 30.932a.434.434 0 010 .439l-7.664 41.39a.528.528 0 01-.4.359l-9.061 2.634a.513.513 0 01-.479 0l-49.22-53.483-1.677 9.1 42.594 46.259a.525.525 0 010 .479.438.438 0 01-.32.319l-9.061 2.635a.569.569 0 01-.479 0l-34.89-38.157-1.676 9.1 28.422 30.813a.512.512 0 010 .479.795.795 0 01-.359.359l-9.102 2.594-.04.2zm-27.943-31.691l28.183 30.613 7.984-2.315-27.944-30.453a.402.402 0 010-.399l1.877-10.338a.515.515 0 01.359-.399.475.475 0 01.519 0l35.408 38.356 7.984-2.275-42.394-45.7a.433.433 0 010-.439l1.916-10.298a.434.434 0 01.319-.359.559.559 0 01.519 0l49.62 54.082 8.462-2.434 7.505-40.871-27.943-30.613-8.503 2.474-5.708 30.733a.518.518 0 01-.32.399.595.595 0 01-.519 0l-21.157-22.99-8.582 2.475-7.585 40.751zm66.226 10.777a.528.528 0 01-.399 0l-21.437-23.349a.437.437 0 010-.44l5.748-31.052a.443.443 0 01.32-.359.558.558 0 01.519 0l21.356 23.349a.595.595 0 010 .439l-5.748 31.012a.477.477 0 01-.359.4zm-20.838-23.948l20.518 22.311 5.509-29.815-20.518-22.271-5.509 29.775z"/><path d="M70.915 469.666a.516.516 0 01-.36 0l-28.542-31.012a.476.476 0 01-.2-.359l7.665-41.589a.479.479 0 01.32-.36l9.181-2.674a.524.524 0 01.519 0l20.718 22.511 5.549-29.855a.525.525 0 01.279-.359l9.181-2.634a.513.513 0 01.48 0v.239l28.581 30.693a.432.432 0 010 .32l-7.664 41.389a.518.518 0 01-.359.359l-9.102 2.595a.524.524 0 01-.479 0l-49.18-53.444-1.677 9.101 42.554 46.259a.475.475 0 010 .479.476.476 0 01-.36.319L89 464.238a.478.478 0 01-.52 0l-34.81-37.997-1.676 9.1 28.383 30.813a.518.518 0 010 .479.441.441 0 01-.36.319l-9.101 2.635v.079zm-27.944-31.73l28.183 30.653 7.984-2.315-27.943-30.454a.438.438 0 010-.439l1.916-10.297a.479.479 0 01.36-.4.442.442 0 01.478 0l35.408 38.357 7.984-2.275-42.434-45.701a.557.557 0 010-.439l1.916-10.297a.523.523 0 01.36-.399.552.552 0 01.479 0l49.659 54.241 8.503-2.434 7.544-40.951-28.262-30.653-8.503 2.475-5.669 30.733a.553.553 0 01-.359.359.477.477 0 01-.519 0L59.18 394.59l-8.583 2.435-7.625 40.911zm66.226 10.816a.401.401 0 01-.359 0l-21.397-23.229a.402.402 0 010-.399l5.748-31.053a.484.484 0 01.36-.359.442.442 0 01.479 0l21.037 23.189a.559.559 0 010 .44l-5.748 31.012a.476.476 0 01-.119.254.475.475 0 01-.24.145h.239zm-20.838-23.948l20.519 22.312 5.509-29.815-20.519-22.312-5.509 29.815z"/><path d="M50.117 397.424a.444.444 0 01-.36 0l-28.542-31.053a.395.395 0 010-.359l7.625-41.429a.479.479 0 01.36-.4l9.14-2.634a.69.69 0 01.56 0l20.678 22.511 5.548-30.014a.525.525 0 01.36-.28l9.061-2.634a.592.592 0 01.559 0l28.502 30.972a.554.554 0 010 .479l-7.624 41.35a.715.715 0 01-.28.399l-9.181 2.634a.435.435 0 01-.48 0l-49.34-53.682-1.476 9.14 42.554 46.259a.518.518 0 010 .479.553.553 0 01-.32.359l-9.061 2.594a.434.434 0 01-.48 0l-34.968-37.877-1.717 8.861 28.422 30.852a.519.519 0 010 .479.479.479 0 01-.319.359l-9.102 2.635h-.12zm-27.944-31.691l28.183 30.613 7.984-2.315-27.943-30.453a.482.482 0 010-.4l1.916-10.337a.594.594 0 01.36-.399.628.628 0 01.518 0L68.6 390.838l7.984-2.315-42.434-45.66a.442.442 0 010-.439l1.876-10.298a.523.523 0 01.36-.399.558.558 0 01.519 0l49.619 54.202 8.503-2.475 7.584-41.03-28.183-30.653-8.502 2.474-5.709 30.733a.522.522 0 01-.359.399.434.434 0 01-.48 0l-21.196-22.91-8.583 2.475-7.425 40.791zm66.186 10.816a.706.706 0 01-.36 0L66.644 353.32a.442.442 0 010-.439l5.709-31.012a.519.519 0 01.359-.4.558.558 0 01.519 0l21.356 23.23a.436.436 0 010 .439l-5.708 31.052a.563.563 0 01-.36.359h-.159zm-20.838-23.948l20.559 22.312 5.508-29.775-20.558-22.312-5.509 29.775zM114.387 144.695a.514.514 0 01-.4 0l-28.542-30.972a.557.557 0 010-.559l7.625-41.39a.479.479 0 01.32-.399l9.181-2.634a.515.515 0 01.518 0l20.679 22.471 5.548-29.975a.6.6 0 01.24-.359l9.221-2.634a.4.4 0 01.479 0l28.502 30.972a.44.44 0 010 .32l-7.664 41.389a.622.622 0 01-.143.217.627.627 0 01-.216.143l-9.102 2.594a.44.44 0 01-.479 0l-49.22-53.483-1.677 9.1 42.554 46.259a.363.363 0 010 .439.437.437 0 01-.319.359l-9.022 2.595a.487.487 0 01-.519 0l-34.93-37.878-1.716 9.1 28.423 30.853a.478.478 0 010 .479.486.486 0 01-.36.319l-9.101 2.634.12.04zm-27.944-31.69l28.223 30.653 7.984-2.315-27.944-30.454a.438.438 0 010-.439l1.917-10.297a.439.439 0 01.319-.4.56.56 0 01.519 0l35.408 38.397 7.984-2.275-42.474-45.74a.44.44 0 010-.44l1.916-10.297a.524.524 0 01.359-.4.443.443 0 01.479 0l49.859 54.202 8.503-2.434 7.465-40.95-28.303-30.774-8.502 2.435-5.669 30.733a.524.524 0 01-.359.4.483.483 0 01-.519 0l-21.157-23.03-8.583 2.474-7.425 40.951zm66.226 10.816a.525.525 0 01-.399 0l-21.357-23.229a.44.44 0 010-.439l5.748-31.013a.524.524 0 01.36-.399.437.437 0 01.479 0l21.356 23.19a.48.48 0 010 .439l-5.748 31.052a.52.52 0 01-.359.399h-.08zm-20.838-23.948l20.519 22.312 5.508-29.815-20.518-22.312-5.509 29.815z"/><path d="M29.2 324.902a.444.444 0 01-.36 0L.298 293.889a.396.396 0 010-.359l7.624-41.549a.523.523 0 01.36-.399l9.141-2.634a.593.593 0 01.559 0l20.678 22.471 5.549-29.975a.553.553 0 01.359-.319l9.062-2.595a.598.598 0 01.519 0v.24l28.422 30.892a.363.363 0 010 .32l-7.425 41.349a.72.72 0 01-.28.4l-9.18 2.634a.442.442 0 01-.48 0l-49.22-53.483-1.677 9.06 42.355 46.139a.561.561 0 010 .479.484.484 0 01-.32.359l-9.062 2.595a.524.524 0 01-.478 0l-34.97-37.878-1.556 8.901L38.7 321.429a.481.481 0 010 .479.434.434 0 01-.32.32l-9.101 2.634-.08.04zM1.255 293.211l28.183 30.653 7.983-2.315L9.48 291.096a.599.599 0 010-.439l1.916-10.298a.523.523 0 01.36-.399.597.597 0 01.518 0l35.17 38.516 7.983-2.315-42.194-45.82a.441.441 0 010-.439l1.876-10.298a.515.515 0 01.359-.399.478.478 0 01.519 0l49.74 54.042 8.502-2.434 7.584-40.951-28.182-30.613-8.503 2.434-5.908 30.893a.479.479 0 01-.36.399.513.513 0 01-.478 0l-21.118-23.149-8.582 2.474-7.425 40.911zm66.186 10.816a.429.429 0 01-.36 0l-21.356-23.229a.437.437 0 010-.439l5.469-31.172a.522.522 0 01.359-.399.478.478 0 01.519 0l21.356 23.189a.441.441 0 010 .439l-5.708 31.053a.602.602 0 01-.36.399l.08.159zM46.604 280.08l20.558 22.431 5.509-29.815-20.558-22.312-5.51 29.696zM123.847 415.544a.594.594 0 01-.359 0l-28.383-31.172a.397.397 0 010-.359l7.306-41.589a.477.477 0 01.359-.399l9.141-2.634a.559.559 0 01.519 0l20.718 22.51 5.549-30.014v-.2a.44.44 0 01.359-.239l9.062-2.634a.558.558 0 01.559 0l28.502 30.972a.525.525 0 010 .479l-7.625 41.35a.514.514 0 01-.279.359l-9.181 2.674a.6.6 0 01-.519 0v-.199l-49.141-53.045-1.676 9.061 42.553 46.259a.512.512 0 010 .479.434.434 0 01-.319.319l-9.062 2.634a.546.546 0 01-.479 0l-34.969-37.877-1.676 9.1 28.422 30.853a.512.512 0 010 .479.562.562 0 01-.319.359l-9.102 2.594.04-.12zm-27.943-31.69l28.183 30.613 7.983-2.315-27.943-30.454a.75.75 0 010-.399l1.916-10.337a.594.594 0 01.36-.399.51.51 0 01.518 0l35.409 38.356 7.983-2.275-42.433-45.7a.393.393 0 010-.4l1.876-10.337a.565.565 0 01.359-.359.476.476 0 01.519 0l49.739 54.082 8.503-2.475 7.584-40.911-28.182-30.653-8.543 2.475-5.669 30.733a.592.592 0 01-.359.399.568.568 0 01-.479 0l-21.197-22.99-8.582 2.475-7.545 40.871zm66.186 10.816a.598.598 0 01-.36 0l-21.356-23.229a.437.437 0 010-.439l5.708-31.053a.554.554 0 01.359-.359.559.559 0 01.519 0l21.357 23.229a.44.44 0 010 .439l-5.788 31.053a.52.52 0 01-.36.399l-.079-.04zm-20.838-23.948l20.558 22.311 5.509-29.814-20.558-22.272-5.509 29.775z"/><path d="M82.092 270.581a.516.516 0 01-.36 0L53.19 239.449a.482.482 0 010-.399l7.625-41.43a.48.48 0 01.36-.359l9.14-2.674a.478.478 0 01.52 0l20.718 22.471 5.548-29.975a.403.403 0 01.28-.319l9.181-2.674a.513.513 0 01.479 0l28.502 30.972a.512.512 0 010 .479l-7.624 41.35a.527.527 0 01-.098.212.53.53 0 01-.182.147l-9.141 2.634a.48.48 0 01-.519 0l-49.22-53.483-1.597 9.14 42.394 46.259a.48.48 0 010 .479.477.477 0 01-.359.319l-9.022 2.595a.523.523 0 01-.519 0l-34.929-37.878-1.557 8.981 28.383 30.852a.519.519 0 010 .479.44.44 0 01-.32.32l-9.141 2.634zM54.148 238.85l28.183 30.653 7.984-2.315-27.943-30.453a.56.56 0 010-.439l1.916-10.298a.476.476 0 01.36-.399.442.442 0 01.478 0l35.408 38.356 7.984-2.275-42.434-45.66a.799.799 0 010-.439L68 205.283a.514.514 0 01.36-.399.644.644 0 01.519 0l49.739 54.042 8.502-2.434 7.585-40.951-28.183-30.613-8.543 2.434-5.668 30.773a.483.483 0 01-.36.36.644.644 0 01-.518 0l-21.157-23.03-8.583 2.474-7.544 40.911zm66.186 10.816a.428.428 0 01-.359 0l-21.397-23.229a.759.759 0 010-.399l5.549-31.292a.486.486 0 01.359-.359.527.527 0 01.519 0l21.357 23.229a.402.402 0 010 .4l-5.748 31.052a.483.483 0 01-.36.399l.08.199zm-20.838-23.947l20.519 22.311 5.509-29.815-20.519-22.311-5.509 29.815zM188.516 162.018a.484.484 0 01-.359 0l-28.542-31.132a.437.437 0 010-.4l7.345-41.549a.715.715 0 01.359-.399l9.181-2.634a.522.522 0 01.519 0l20.678 22.471 5.549-29.975a.553.553 0 01.28-.4l9.221-2.633a.437.437 0 01.479 0l28.542 30.972a.444.444 0 010 .439l-7.385 41.669a.598.598 0 01-.399.359l-9.062 2.595a.524.524 0 01-.479 0l-49.22-53.484-1.756 9.021 42.553 46.219a.512.512 0 010 .479.475.475 0 01-.319.359l-9.062 2.595a.44.44 0 01-.479 0l-34.969-37.878-1.676 9.1 28.422 30.853a.478.478 0 010 .479.551.551 0 01-.359.319l-9.102 2.635.04-.08zm-27.943-31.691l28.183 30.653 7.983-2.315-27.943-30.454a.43.43 0 010-.439l1.876-10.297a.523.523 0 01.359-.399.565.565 0 01.519 0l35.329 38.516 7.984-2.275-42.315-45.86a.446.446 0 010-.439l1.917-10.298a.48.48 0 01.319-.399.476.476 0 01.519 0l49.779 54.042 8.463-2.435 7.584-40.95-28.183-30.613-8.502 2.434-5.709 30.733a.441.441 0 01-.319.399.48.48 0 01-.519 0l-21.277-22.95-8.582 2.475-7.465 40.871zm66.265 10.816a.505.505 0 01-.399 0l-21.357-23.229a.446.446 0 010-.439l5.749-31.012a.474.474 0 01.319-.4.48.48 0 01.519 0l21.357 23.23a.484.484 0 010 .399l-5.749 31.052a.51.51 0 01-.359.399h-.08zm-20.837-23.948l20.518 22.312 5.509-29.815-20.519-22.311-5.508 29.814zM345.557 469.068a.524.524 0 01-.399 0l-28.542-31.013a.516.516 0 010-.359l7.665-41.549a.432.432 0 01.319-.399l9.181-2.635a.6.6 0 01.519 0l20.678 22.511 5.549-29.974a.55.55 0 01.319-.439l9.182-2.675a.44.44 0 01.479 0 .207.207 0 010 .2l28.462 30.893a.525.525 0 010 .479l-7.664 41.349a.576.576 0 01-.144.201.572.572 0 01-.216.119l-9.101 2.634a.525.525 0 01-.479 0l-49.22-53.483-1.517 9.06 42.553 46.259a.512.512 0 010 .479.795.795 0 01-.359.359l-9.022 2.594a.476.476 0 01-.519 0l-34.929-37.877-1.716 8.941 28.422 30.852a.554.554 0 010 .479.565.565 0 01-.359.359l-9.102 2.635h-.04zm-27.943-31.691l28.183 30.613 7.984-2.315-27.944-30.414a.44.44 0 010-.439l1.916-10.337a.527.527 0 01.32-.399.595.595 0 01.519 0L364 462.482l7.984-2.315-42.434-45.66a.437.437 0 010-.439l1.916-10.298a.48.48 0 01.359-.399.513.513 0 01.479 0l49.779 54.082 8.503-2.475 7.425-40.711-28.183-30.653-8.503 2.475-5.668 30.733a.52.52 0 01-.359.399.48.48 0 01-.519 0l-21.157-22.99-8.583 2.475-7.425 40.671zm66.226 10.816a.716.716 0 01-.4 0l-21.356-23.229a.437.437 0 010-.439l5.748-31.013a.48.48 0 01.359-.399.446.446 0 01.479 0l21.397 23.19a.799.799 0 010 .439l-5.748 31.052a.477.477 0 01-.36.359l-.119.04zm-20.838-23.948l20.518 22.312 5.509-29.775-20.518-22.312-5.509 29.775z"/><path d="M324.64 396.546a.524.524 0 01-.399 0l-28.503-30.973a.438.438 0 010-.519l7.625-41.429a.476.476 0 01.319-.399l9.182-2.635a.523.523 0 01.519 0l20.678 22.471 5.548-29.974a.601.601 0 01.24-.36l9.221-2.634a.525.525 0 01.479 0l28.502 30.973a.43.43 0 010 .439l-7.504 41.509a.64.64 0 01-.36.359l-9.101 2.595a.64.64 0 01-.479 0l-49.22-53.484-1.677 9.061 42.554 46.259a.44.44 0 010 .479.483.483 0 01-.32.359l-9.021 2.594a.559.559 0 01-.519 0l-34.929-37.877-1.797 9.02 28.423 30.893a.475.475 0 010 .479.486.486 0 01-.36.319l-9.101 2.634v-.159zm-27.944-31.691l28.223 30.653 7.984-2.315-27.943-30.454a.43.43 0 010-.439l1.716-10.297a.44.44 0 01.32-.399.558.558 0 01.519 0l35.328 38.715 7.984-2.315-42.195-46.019a.44.44 0 010-.439l1.916-10.298a.479.479 0 01.36-.399.44.44 0 01.479 0l49.779 54.042 8.502-2.435 7.545-40.95-28.183-30.614-8.502 2.435-5.908 30.893a.52.52 0 01-.36.399.558.558 0 01-.519 0l-21.157-23.03-8.582 2.475-7.306 40.791zm66.226 10.816a.524.524 0 01-.399 0l-21.357-23.229a.44.44 0 010-.439l5.749-31.013a.548.548 0 01.319-.399.598.598 0 01.519 0l21.357 23.19a.478.478 0 010 .439l-5.749 31.052a.519.519 0 01-.359.399h-.08zm-20.838-23.948l20.519 22.312 5.509-29.815-20.519-22.312-5.509 29.815zM241.409 107.656a.518.518 0 01-.36 0l-28.542-31.012a.444.444 0 010-.36l7.625-41.549a.478.478 0 01.359-.399l9.141-2.634a.483.483 0 01.519 0l20.639 22.47 5.548-30.014a.48.48 0 01.399-.319l9.062-2.634a.44.44 0 01.479 0L294.7 52.257a.628.628 0 010 .36l-7.664 41.389a.56.56 0 01-.319.36l-9.142 2.633a.557.557 0 01-.479 0l-49.1-53.483-1.677 9.06 42.554 46.379a.524.524 0 010 .479.485.485 0 01-.359.32l-9.022 2.634a.487.487 0 01-.519 0L224.044 64.51l-1.677 9.1 28.423 30.574a.524.524 0 010 .479.53.53 0 01-.36.359l-9.101 2.594.08.04zm-27.944-31.69l28.223 30.612 7.984-2.315-27.943-30.453a.39.39 0 010-.4l1.916-10.337a.514.514 0 01.359-.4.437.437 0 01.479.001l35.408 38.357 7.984-2.276-42.474-45.7a.526.526 0 010-.399l1.916-10.337a.482.482 0 01.359-.36.443.443 0 01.479 0l49.66 54.202 8.502-2.475 7.545-40.91-28.183-30.653-8.502 2.474-5.669 30.733a.606.606 0 01-.359.4.522.522 0 01-.519 0l-21.157-22.99-8.583 2.474-7.425 40.751zm66.106 11.015a.52.52 0 01-.359 0l-21.397-23.23a.57.57 0 010-.438l5.749-31.052a.474.474 0 01.359-.36.437.437 0 01.479 0l21.277 23.15a.444.444 0 010 .439l-5.749 31.012a.478.478 0 01-.359.4v.08zm-20.798-23.948l20.519 22.312 5.509-29.815-20.519-22.272-5.509 29.775zM368.072 71.615a.481.481 0 01-.36 0L339.17 40.602a.731.731 0 010-.399l7.425-41.669a.596.596 0 01.359-.399l9.182-2.634a.518.518 0 01.519 0l20.678 22.47 5.549-29.974a.508.508 0 01.279-.359l9.221-2.674a.561.561 0 01.479 0l28.542 31.012a.552.552 0 010 .44l-7.664 41.349a.397.397 0 01-.359.32l-9.062 2.633a.518.518 0 01-.479 0l-49.26-53.243-1.717 9.06 42.594 46.259a.513.513 0 010 .479.48.48 0 01-.319.36l-9.062 2.593a.437.437 0 01-.479 0L350.627 28.35l-1.677 9.1 28.423 30.853a.566.566 0 010 .479.636.636 0 01-.36.36l-9.101 2.633.16-.16zm-27.944-31.691l28.183 30.653 7.984-2.315-27.943-30.453a.434.434 0 010-.44l1.876-10.337a.561.561 0 01.359-.36.48.48 0 01.519 0l35.408 38.397 7.984-2.315-42.394-45.7a.434.434 0 010-.44l1.916-10.297a.435.435 0 01.319-.399.482.482 0 01.519 0l49.74 54.042 8.502-2.434 7.585-40.951-28.183-30.613-8.503 2.434-5.708 30.733a.482.482 0 01-.319.4.483.483 0 01-.519 0l-21.157-22.99-8.583 2.474-7.585 40.91zm66.186 10.816a.718.718 0 01-.359 0l-21.357-23.229a.445.445 0 010-.44l5.708-31.011a.524.524 0 01.36-.4.477.477 0 01.519 0l21.356 23.19a.434.434 0 010 .439l-5.708 31.052a.56.56 0 01-.359.36l-.16.04zm-20.838-23.947l20.559 22.31 5.508-29.814-20.518-22.311-5.549 29.815zM409.587 215.621a.516.516 0 01-.359 0l-28.542-31.013a.522.522 0 010-.479l7.625-41.429a.47.47 0 01.319-.359l9.181-2.675a.527.527 0 01.519 0l20.718 22.471 5.549-29.974a.395.395 0 01.239-.319l9.222-2.675a.524.524 0 01.479 0l28.502 30.973a.478.478 0 010 .479l-7.664 41.35a.483.483 0 01-.28.399l-9.181 2.634a.525.525 0 01-.479 0l-49.22-53.483-1.677 9.1 42.514 46.099a.446.446 0 010 .439.477.477 0 01-.36.359l-9.021 2.595a.48.48 0 01-.519 0l-34.929-37.878-1.677 9.101 28.382 30.852a.513.513 0 010 .479.436.436 0 01-.359.32l-9.101 2.634h.119zm-27.943-31.731l28.223 30.653 7.984-2.315-27.944-30.453a.44.44 0 010-.439l1.916-10.298a.479.479 0 01.36-.399.44.44 0 01.479 0l35.408 38.356 7.984-2.275-42.195-45.86a.568.568 0 010-.439l1.916-10.297a.523.523 0 01.36-.399.433.433 0 01.479 0l49.779 54.042 8.502-2.435 7.545-40.951-28.183-30.613-8.502 2.435-5.669 30.773a.554.554 0 01-.359.359.527.527 0 01-.519 0l-21.157-23.03-8.583 2.475-7.824 41.11zm66.106 10.856a.401.401 0 01-.359 0l-21.397-23.229a.525.525 0 010-.399l5.748-31.052a.594.594 0 01.133-.242.59.59 0 01.227-.158.524.524 0 01.479 0l21.396 23.23a.55.55 0 010 .439l-5.748 31.012a.477.477 0 01-.359.399h-.12zm-20.838-23.947l20.519 22.311 5.508-29.815-20.518-22.311-5.509 29.815z"/><path d="M335.817 197.5a.401.401 0 01-.359 0l-28.542-30.972a.56.56 0 010-.399l7.664-41.55a.566.566 0 01.319-.399l9.182-2.634a.476.476 0 01.519 0l20.718 22.471 5.549-29.975a.442.442 0 01.279-.399l9.181-2.634a.437.437 0 01.479 0l28.503 30.972c.04.103.04.217 0 .32l-7.665 41.349a.643.643 0 01-.359.359l-9.102 2.595a.44.44 0 01-.479 0l-49.22-53.483-1.677 9.06 42.554 46.259a.55.55 0 010 .479.565.565 0 01-.359.359l-9.022 2.594a.476.476 0 01-.519 0l-34.809-37.757-1.677 9.06 28.383 30.893a.44.44 0 010 .439.44.44 0 01-.36.359l-9.101 2.634h-.08zm-27.943-31.691l28.222 30.653 7.984-2.315-27.943-30.453a.437.437 0 010-.439l1.916-10.338a.486.486 0 01.359-.359.525.525 0 01.479 0l35.409 38.396 7.983-2.315-42.473-45.78a.55.55 0 010-.439l1.916-10.297a.477.477 0 01.359-.399.435.435 0 01.479 0l49.779 54.042 8.503-2.435 7.544-40.951-28.182-30.613-8.503 2.435-5.669 30.733a.515.515 0 01-.359.399.475.475 0 01-.519 0l-21.157-23.03-8.583 2.475-7.544 41.03zm66.225 10.817a.396.396 0 01-.359 0l-21.396-23.23a.55.55 0 010-.439l5.748-31.012a.519.519 0 01.359-.399.435.435 0 01.479 0l21.397 23.229a.447.447 0 010 .399l-5.789 31.052a.523.523 0 01-.359.4h-.08zm-20.837-23.948l20.518 22.311 5.509-29.815-20.718-22.271-5.309 29.775zM726.185 359.427a.527.527 0 01-.359 0l-28.582-31.013a.552.552 0 010-.359l7.505-41.509a.477.477 0 01.359-.4l9.141-2.634a.527.527 0 01.519 0l20.718 22.511 5.549-30.014a.358.358 0 010-.2.433.433 0 01.359-.24l9.062-2.634a.475.475 0 01.519 0l28.502 30.973a.525.525 0 010 .479l-7.665 41.349a.56.56 0 01-.359.32l-9.101 2.634a.526.526 0 01-.479 0v-.2l-49.181-53.443-1.676 9.1 42.753 46.459a.478.478 0 010 .479.477.477 0 01-.359.319l-9.022 2.634a.476.476 0 01-.519 0l-34.929-37.877-1.677 9.1 28.383 30.853a.524.524 0 010 .479.52.52 0 01-.359.359l-9.102 2.594v-.119zm-27.943-31.691l28.223 30.613 7.983-2.315-27.943-30.454a.43.43 0 010-.439l1.916-10.297a.476.476 0 01.359-.399.437.437 0 01.479 0l35.409 38.356 7.983-2.275-42.194-45.86a.525.525 0 010-.399l1.916-10.338a.486.486 0 01.359-.359.525.525 0 01.479 0l49.779 54.082 8.503-2.474 7.545-40.951-28.183-30.613-8.503 2.474-5.668 30.733a.718.718 0 01-.359.399.633.633 0 01-.519 0l-21.158-22.989-8.582 2.474-7.824 41.031zm66.106 10.696a.518.518 0 01-.36 0l-21.396-23.229a.434.434 0 010-.439l5.748-31.052a.477.477 0 01.359-.36.525.525 0 01.479 0l21.397 23.23a.55.55 0 010 .439l-5.748 31.012a.479.479 0 01-.36.399h-.119zm-20.838-23.947l20.518 22.311 5.509-29.815-20.518-22.271-5.509 29.775zM578.685 323.386a.613.613 0 01-.36 0l-28.542-31.013a.484.484 0 010-.359l7.625-41.589a.469.469 0 01.128-.231.469.469 0 01.231-.128l9.141-2.635a.48.48 0 01.519 0l20.718 22.511 5.549-30.014a.56.56 0 01.319-.36l9.142-2.634a.603.603 0 01.559 0l28.502 30.973a.354.354 0 010 .319l-7.625 41.39a.478.478 0 01-.359.359l-9.062 2.594a.476.476 0 01-.519 0v-.199l-49.18-53.444-1.676 9.1 42.274 46.459a.48.48 0 010 .479.433.433 0 01-.359.319l-9.022 2.595a.523.523 0 01-.519 0L561.24 280l-1.677 9.1 28.383 30.853a.525.525 0 010 .479.433.433 0 01-.32.319l-9.141 2.635h.2zm-27.944-31.691l28.183 30.613 7.984-2.315-27.943-30.454a.78.78 0 010-.439l1.916-10.297a.477.477 0 01.359-.399.558.558 0 01.519 0l35.408 38.356 7.984-2.275-42.155-45.86a.605.605 0 010-.439l1.916-10.297a.604.604 0 01.36-.4.64.64 0 01.519 0l49.739 54.042 8.502-2.434 7.585-40.951-28.183-30.613-8.542 2.474-5.669 30.733a.476.476 0 01-.359.36.443.443 0 01-.479 0l-21.197-22.99-9.022 2.514-7.425 41.071zm66.106 10.816a.429.429 0 01-.359 0l-21.397-23.229a.607.607 0 010-.399l5.749-31.053a.478.478 0 01.359-.359.523.523 0 01.519 0l21.356 23.23a.43.43 0 010 .439l-5.748 31.012a.436.436 0 01-.319.399l-.16-.04zm-20.838-23.948l20.519 22.312 5.509-29.815-20.519-22.312-5.509 29.815z"/><path d="M557.927 251.143a.514.514 0 01-.4 0l-28.502-31.012a.398.398 0 010-.479l7.585-41.43a.515.515 0 01.359-.399l9.181-2.634a.6.6 0 01.519 0l20.678 22.511 5.549-30.015a.486.486 0 01.359-.319l9.102-2.634a.553.553 0 01.479 0l28.502 30.972a.513.513 0 010 .479l-7.664 41.35a.572.572 0 01-.36.319l-9.101 2.634a.513.513 0 01-.479 0l-49.22-53.443-1.677 9.06 42.554 46.259a.446.446 0 010 .479.56.56 0 01-.32.359l-9.021 2.595a.48.48 0 01-.519 0l-34.929-37.878-1.717 9.101 28.422 30.852a.513.513 0 010 .479.558.558 0 01-.359.359l-9.101 2.595.08-.16zm-27.944-31.691l28.183 30.614 7.984-2.315-27.943-30.414a.437.437 0 010-.439l1.916-10.338a.516.516 0 01.319-.399.598.598 0 01.519 0l35.408 38.397 7.984-2.315-42.194-45.82a.437.437 0 010-.44l1.916-10.297a.476.476 0 01.319-.399.558.558 0 01.519 0l49.779 54.082 8.463-2.475 7.584-40.911-28.622-30.373-8.502 2.474-5.709 30.733a.439.439 0 01-.319.399.48.48 0 01-.519 0l-21.157-22.989-8.583 2.474-7.345 40.751zm66.226 10.817a.731.731 0 01-.399 0l-21.477-23.549a.444.444 0 010-.439l5.749-31.012a.432.432 0 01.319-.399.558.558 0 01.519 0l21.357 23.229a.605.605 0 010 .439l-5.749 31.012a.477.477 0 01-.359.399l.04.32zm-20.838-23.948l20.518 22.271 5.39-29.855-20.519-22.311-5.389 29.895zM684.47 214.703a.516.516 0 01-.359 0l-28.543-31.013a.523.523 0 010-.399l7.625-41.549a.477.477 0 01.359-.359l9.142-2.674a.476.476 0 01.519 0l20.718 22.471 5.548-29.975a.598.598 0 01.4-.359l9.061-2.595a.443.443 0 01.479 0c.012.08.012.16 0 .24l28.423 30.892a.82.82 0 010 .32l-7.625 41.389a.484.484 0 01-.359.36l-9.062 2.594a.595.595 0 01-.519 0l-49.22-53.483-1.677 9.1 42.554 46.259a.478.478 0 010 .479.477.477 0 01-.359.319l-9.022 2.595a.523.523 0 01-.519 0l-34.929-37.878-1.677 9.1 28.383 30.853a.524.524 0 010 .479.434.434 0 01-.319.319l-9.142 2.635.12-.12zm-27.943-31.731l28.182 30.653 7.984-2.315-27.943-30.453a.555.555 0 010-.439l1.916-10.298a.48.48 0 01.359-.399.446.446 0 01.479 0l35.448 38.356 7.984-2.275-42.194-45.86a.799.799 0 010-.439l1.916-10.297a.512.512 0 01.368-.38.51.51 0 01.51.14l49.739 54.042 8.503-2.434 7.585-40.951-28.223-30.613-8.503 2.434-5.668 30.773a.479.479 0 01-.36.359.514.514 0 01-.519 0l-21.157-22.989-8.582 2.434-7.824 40.951zm66.185 10.816a.424.424 0 01-.359 0l-21.397-23.229a.771.771 0 010-.399l5.749-31.052a.592.592 0 01.359-.399.629.629 0 01.519 0l21.357 23.229a.398.398 0 010 .399l-5.749 31.052a.514.514 0 01-.359.399h-.12zm-20.837-23.947l20.518 22.311 5.509-29.815-20.519-22.311-5.508 29.815z"/><path d="M536.969 178.781a.475.475 0 01-.359 0l-28.542-31.012a.516.516 0 010-.359l7.664-41.55a.484.484 0 01.32-.399l9.181-2.634a.514.514 0 01.519 0l20.678 22.471 5.549-29.975a.564.564 0 01.319-.4l9.181-2.633a.442.442 0 01.479 0l28.503 30.972c.04.103.04.217 0 .32l-7.665 41.349a.629.629 0 01-.359.36l-9.102 2.594a.524.524 0 01-.479 0l-49.22-53.483-1.676 9.06 42.553 46.259a.435.435 0 010 .479.477.477 0 01-.319.359l-9.022 2.594a.558.558 0 01-.519 0l-34.929-37.877-1.716 9.06 28.422 30.893a.444.444 0 010 .439.481.481 0 01-.359.359l-9.102 2.634v.12zm-27.943-31.691l28.183 30.653 7.983-2.315-27.943-30.453a.444.444 0 010-.439l1.916-10.338a.443.443 0 01.32-.359.558.558 0 01.519 0l35.408 38.396 7.983-2.315-42.194-45.82a.44.44 0 010-.439l1.916-10.297a.484.484 0 01.32-.399.476.476 0 01.518 0l49.779 54.042 8.463-2.435 7.585-40.951-28.183-30.613-8.503 2.435-5.708 30.733a.438.438 0 01-.319.399.48.48 0 01-.519 0l-21.157-23.03-8.583 2.475-7.784 41.07zm66.225 10.817a.524.524 0 01-.399 0l-21.356-23.23a.43.43 0 010-.439l5.748-31.012a.566.566 0 01.319-.399.482.482 0 01.519 0l21.397 23.229a.607.607 0 010 .399l-5.749 31.053a.605.605 0 01-.359.399h-.12zm-20.837-23.948l20.518 22.311 5.509-29.815-20.518-22.311-5.509 29.815zM832.05 250.345a.712.712 0 01-.399 0l-28.502-31.012a.398.398 0 010-.479l7.624-41.43a.493.493 0 01.102-.246.488.488 0 01.218-.153l9.181-2.634a.6.6 0 01.519 0l20.718 22.511 5.509-30.015a.553.553 0 01.279-.399l9.222-2.674a.546.546 0 01.479 0l28.502 30.972a.44.44 0 010 .439l-7.665 41.35a.516.516 0 01-.359.359l-9.101 2.635a.446.446 0 01-.44 0l-49.22-53.444-1.676 9.06 42.553 46.259a.516.516 0 010 .479.56.56 0 01-.359.32l-9.022 2.634a.475.475 0 01-.519 0L814.765 207l-1.676 9.1 28.382 30.852a.516.516 0 010 .479.629.629 0 01-.359.36l-9.102 2.594.04-.04zm-27.943-31.691l28.223 30.613 7.983-2.315-27.943-30.453a.402.402 0 010-.399l1.916-10.338a.477.477 0 01.32-.399.475.475 0 01.519 0l35.408 38.356 7.984-2.275-42.474-45.7a.399.399 0 010-.399l1.916-10.337a.476.476 0 01.359-.36.443.443 0 01.479 0l49.779 54.082 8.503-2.474 7.545-40.911-28.183-30.653-8.503 2.474-5.668 30.733a.604.604 0 01-.36.4.484.484 0 01-.519 0l-21.157-22.99-8.582 2.474-7.545 40.871zm66.226 10.817a.53.53 0 01-.36 0l-21.396-23.23a.43.43 0 010-.439l5.748-31.012a.477.477 0 01.359-.399.513.513 0 01.479 0l21.357 23.189a.594.594 0 010 .359l-5.748 31.013a.476.476 0 01-.36.399l-.079.12zm-20.838-23.948l20.518 22.311 5.509-29.815-20.518-22.271-5.509 29.775zM958.594 213.865a.487.487 0 01-.36 0l-28.542-31.093a.48.48 0 010-.558l7.585-41.39a.603.603 0 01.359-.399l9.182-2.635a.484.484 0 01.519 0l20.678 22.471 5.548-29.974a.639.639 0 01.28-.359l9.181-2.635a.482.482 0 01.479 0l28.547 30.973a.8.8 0 01.04.219.8.8 0 01-.04.22l-7.67 41.35a.437.437 0 01-.13.231.452.452 0 01-.23.128l-9.06 2.594a.64.64 0 01-.479 0l-49.1-53.284-1.717 9.061 42.554 46.259a.564.564 0 010 .479.483.483 0 01-.32.359l-9.061 2.594a.513.513 0 01-.479 0l-34.969-37.997-1.677 9.06 28.422 30.893a.437.437 0 010 .439.516.516 0 01-.359.359l-9.101 2.635h-.08zm-27.944-31.691l28.183 30.653 7.984-2.315-27.943-30.454a.595.595 0 010-.439l1.916-10.337a.558.558 0 01.359-.359.559.559 0 01.519 0l35.408 38.396 7.984-2.315-42.154-45.82a.437.437 0 010-.439l1.876-10.298a.515.515 0 01.359-.399.476.476 0 01.519 0l49.739 54.042 8.501-2.434 7.59-40.951-28.186-30.613-8.503 2.434-5.709 30.733a.477.477 0 01-.359.399.512.512 0 01-.479 0l-21.596-22.79-8.543 2.475-7.465 40.831zm66.186 10.816a.475.475 0 01-.359 0l-21.357-23.229a.44.44 0 010-.439l5.709-31.013a.598.598 0 01.359-.399.475.475 0 01.519 0l21.353 23.23c.04.059.06.128.06.199 0 .071-.02.141-.06.2l-5.785 31.052a.718.718 0 01-.359.399h-.08zm-20.838-23.948l20.559 22.312 5.513-29.815-20.762-22.232-5.31 29.735z"/><path d="M811.133 177.823a.529.529 0 01-.399 0l-28.503-30.972a.447.447 0 010-.36l7.465-41.748a.48.48 0 01.32-.4l9.181-2.634a.598.598 0 01.519 0l20.678 22.511 5.549-29.974a.438.438 0 01.279-.36l9.181-2.634a.362.362 0 01.48 0l28.462 30.933c.04.102.04.216 0 .319l-7.665 41.39a.64.64 0 01-.359.359l-9.101 2.594a.516.516 0 01-.48 0l-49.06-53.164-1.677 9.06 42.554 46.259a.513.513 0 010 .479.629.629 0 01-.359.36l-9.022 2.594a.475.475 0 01-.519 0l-34.929-37.877-1.677 9.1 28.383 30.852a.569.569 0 010 .479.556.556 0 01-.359.36l-9.102 2.634.16-.16zm-27.944-31.691l28.223 30.613 7.984-2.314-27.943-30.414a.437.437 0 010-.439l1.916-10.338a.434.434 0 01.319-.359.48.48 0 01.519 0l35.408 38.396 7.984-2.315-42.194-45.82a.43.43 0 010-.439l1.916-10.297a.477.477 0 01.359-.399.513.513 0 01.479 0l49.779 54.082 8.503-2.435 7.145-40.751-28.183-30.653-8.502 2.474-5.669 30.733a.514.514 0 01-.359.399.477.477 0 01-.519 0l-21.157-22.989-8.583 2.474-7.425 40.791zm66.226 10.817a.731.731 0 01-.399 0l-21.357-23.23a.44.44 0 010-.439l5.749-31.012a.477.477 0 01.359-.399.435.435 0 01.479 0l21.396 23.189a.799.799 0 010 .439l-5.748 31.053a.478.478 0 01-.359.359l-.12.04zm-20.838-23.948l20.519 22.311 5.509-29.815-20.519-22.311-5.509 29.815zM916.918 69.14a.517.517 0 01-.399 0l-28.542-31.012a.516.516 0 010-.36l7.664-41.549a.442.442 0 01.32-.399l9.181-2.634a.6.6 0 01.519 0l20.678 22.51 5.549-29.974a.556.556 0 01.359-.319l9.101-2.634a.566.566 0 01.519 0l28.542 31.012a.43.43 0 010 .32l-7.664 41.389a.639.639 0 01-.279.36l-9.182 2.633a.518.518 0 01-.479 0L903.585 5l-1.676 9.06 42.553 46.26a.434.434 0 010 .478.56.56 0 01-.319.36l-9.022 2.594a.477.477 0 01-.519 0l-34.929-37.877-1.716 9.1 28.422 30.852a.566.566 0 010 .48.554.554 0 01-.359.36l-9.102 2.633v-.16zm-27.943-31.69l28.183 30.613 7.983-2.315-27.943-30.414a.444.444 0 010-.439l1.916-10.338a.44.44 0 01.32-.36.558.558 0 01.518.001l35.409 38.396 7.983-2.314-42.433-45.7a.434.434 0 010-.44l1.916-10.297a.441.441 0 01.319-.4.558.558 0 01.519 0l49.699 54.202 8.463-2.434 7.505-40.951-27.944-30.613-8.502 2.435-5.709 30.732a.44.44 0 01-.319.4.48.48 0 01-.519 0l-21.157-22.99-8.583 2.474-7.624 40.751zM955.2 48.265a.718.718 0 01-.399 0l-21.396-23.39a.434.434 0 010-.438l5.748-31.013a.474.474 0 01.319-.399.559.559 0 01.519 0l21.357 23.35a.799.799 0 010 .438L955.6 47.867a.483.483 0 01-.36.359l-.04.04zm-20.837-23.948l20.518 22.311 5.509-29.815-20.519-22.31-5.508 29.814zM1244.77 14.02a.721.721 0 01-.4 0l-28.54-31.012a.373.373 0 01-.04-.18c0-.062.01-.124.04-.18l7.63-41.429c0-.091.03-.18.09-.25a.46.46 0 01.23-.149l9.18-2.634a.596.596 0 01.52 0l20.67 22.51 5.55-30.014a.408.408 0 01.32-.24l9.1-2.634a.527.527 0 01.52 0l28.54 30.973a.502.502 0 010 .479L1290.52.61a.547.547 0 01-.14.2.638.638 0 01-.22.119l-9.1 2.634a.45.45 0 01-.24.071.426.426 0 01-.24-.07l-49.1-53.684-1.68 9.06 42.56 46.26a.502.502 0 010 .478.574.574 0 01-.15.2.521.521 0 01-.21.12l-9.02 2.634a.493.493 0 01-.26.076c-.1 0-.19-.026-.26-.076l-34.93-37.877-1.72 9.1 28.42 30.852a.502.502 0 010 .48.628.628 0 01-.36.359l-9.1 2.594v-.12zm-27.94-31.69l28.18 30.613 7.99-2.315-27.95-30.454a.455.455 0 01-.05-.2c0-.07.02-.138.05-.199l1.92-10.337c.01-.09.04-.175.1-.246.06-.07.13-.124.22-.154.08-.05.17-.076.26-.076s.18.027.26.076l35.41 38.357 7.98-2.275-42.39-45.86a.36.36 0 010-.4l1.91-10.337a.512.512 0 01.13-.231.45.45 0 01.23-.128.519.519 0 01.48 0l49.78 54.082 8.46-2.475 7.55-40.511-28.19-30.653-8.5 2.474-5.67 30.733a.568.568 0 01-.13.242.569.569 0 01-.23.157.598.598 0 01-.52 0l-21.31-23.269-8.59 2.475-7.38 40.91zm66.23 10.816a.721.721 0 01-.4 0l-21.36-23.23a.425.425 0 010-.439l5.75-31.052c.01-.082.05-.16.11-.222.05-.063.13-.11.21-.137a.563.563 0 01.52 0l21.39 23.23c.04.143.04.295 0 .438l-5.75 31.013a.474.474 0 01-.11.254.501.501 0 01-.25.145h-.11zm-20.84-23.948l20.52 22.311 5.5-29.815-20.51-22.39-5.51 29.894zM1044.06 32.5a.423.423 0 01-.18.043.423.423 0 01-.18-.043l-28.54-31.012a.373.373 0 01-.04-.18c0-.062.01-.124.04-.18l7.46-41.868c.02-.093.06-.18.13-.25.06-.07.14-.122.23-.15l9.14-2.633c.08-.05.17-.077.26-.077.1 0 .19.027.26.077l20.72 22.99 5.55-29.975c.03-.08.07-.152.14-.208a.47.47 0 01.22-.111l9.06-2.595a.459.459 0 01.26-.085c.09 0 .18.03.26.085l28.5 31.012a.425.425 0 010 .44l-7.42 41.35a.536.536 0 01-.28.36l-9.18 2.633a.477.477 0 01-.24.07.426.426 0 01-.24-.07l-49.34-53.763-1.68 9.06 42.55 46.26a.506.506 0 010 .478.531.531 0 01-.36.36l-9.02 2.594a.633.633 0 01-.52 0l-34.92-37.877-1.48 8.94 28.38 30.893c.04.072.06.155.06.24 0 .083-.02.166-.06.239a.498.498 0 01-.11.203.463.463 0 01-.21.116l-9.14 2.634h-.08zM1016.12.81l28.18 30.652 7.98-2.314-27.94-30.454a.548.548 0 01-.04-.22c0-.075.01-.15.04-.22l1.92-10.297a.474.474 0 01.11-.254.5.5 0 01.25-.145.49.49 0 01.47 0l35.41 38.396 7.99-2.314-42.44-45.7a.818.818 0 010-.44l1.92-10.297a.422.422 0 01.12-.255.434.434 0 01.24-.145.426.426 0 01.24-.07c.08 0 .17.024.24.07l49.78 54.043 8.5-2.435 7.58-40.95-28.18-30.614-8.54 2.435-5.67 30.733a.488.488 0 01-.36.399.598.598 0 01-.52 0l-21.16-23.03-8.58 2.475-7.54 40.95zm66.18 10.816a.426.426 0 01-.18.038.46.46 0 01-.18-.038l-21.39-23.23a.818.818 0 010-.439l5.74-31.012a.58.58 0 01.12-.255.517.517 0 01.24-.144.562.562 0 01.52 0l21.36 23.19a.425.425 0 010 .438l-5.83 30.973a.567.567 0 01-.12.25.577.577 0 01-.24.149l-.04.08zm-20.84-23.948l20.52 22.311 5.51-29.815-20.52-22.311-5.51 29.815z"/><path d="M1117.79 50.62a.422.422 0 01-.18.044.422.422 0 01-.18-.043l-28.34-31.172a.373.373 0 01-.04-.18c0-.062.01-.124.04-.18l7.62-41.549a.58.58 0 01.12-.254.517.517 0 01.24-.145l9.14-2.634a.563.563 0 01.52 0l20.72 22.51 5.19-29.774c.03-.08.07-.152.14-.208a.468.468 0 01.22-.111l9.06-2.635a.527.527 0 01.52 0l28.58 30.893a.44.44 0 010 .32l-7.66 41.389a.554.554 0 01-.14.208.468.468 0 01-.22.111l-9.1 2.634a.45.45 0 01-.24.071.425.425 0 01-.24-.07l-49.18-53.364-1.68 9.06 42.55 46.26a.502.502 0 010 .478.628.628 0 01-.35.36l-9.03 2.594a.562.562 0 01-.52 0l-34.8-38.077-1.68 9.1 28.38 30.852a.507.507 0 010 .48.434.434 0 01-.13.23.45.45 0 01-.23.129l-9.1 2.634v.04zm-27.94-31.69l28.18 30.613 7.98-2.315-27.94-30.413a.425.425 0 010-.44l1.92-10.337a.494.494 0 01.12-.231.526.526 0 01.24-.128.49.49 0 01.47 0l35.41 38.396 7.99-2.315-42.44-45.7a.818.818 0 010-.44l1.92-10.297a.422.422 0 01.12-.254.472.472 0 01.24-.145.458.458 0 01.24-.064c.08 0 .16.022.24.064l49.66 54.162 8.5-2.475 7.58-40.91-28.22-30.614-8.5 2.435-5.67 30.733a.422.422 0 01-.12.255.472.472 0 01-.24.144.562.562 0 01-.52 0l-21.16-22.99-8.58 2.475-7.42 40.791zm66.18 10.816a.52.52 0 01-.36 0L1134.2 6.357a.818.818 0 010-.439l5.75-31.012a.475.475 0 01.11-.255.518.518 0 01.24-.144.478.478 0 01.24-.071c.09 0 .17.025.24.07l21.4 23.19a.426.426 0 010 .44l-5.75 31.052a.434.434 0 01-.13.23.45.45 0 01-.23.129l-.04.2zM1135.2 5.8l20.51 22.311 5.51-29.815-20.52-22.311-5.5 29.815zM1339.82 104.064a.53.53 0 01-.36 0l-28.54-31.013a.553.553 0 010-.359l7.46-41.59a.58.58 0 01.12-.254.516.516 0 01.24-.144l9.14-2.635a.563.563 0 01.52 0l20.72 22.511 5.55-30.014a.442.442 0 01.28-.32l9.18-2.674a.52.52 0 01.48 0l28.5 30.973a.425.425 0 010 .439l-7.66 41.35a.554.554 0 01-.14.207.47.47 0 01-.22.112l-9.1 2.634a.588.588 0 01-.24.054.524.524 0 01-.24-.054l-49.22-53.443-1.68 9.06 42.55 46.259a.502.502 0 010 .479.438.438 0 01-.13.208.519.519 0 01-.22.111l-9.03 2.635a.563.563 0 01-.52 0l-34.92-37.878-1.68 9.1 28.38 30.853a.501.501 0 010 .479.479.479 0 01-.12.216.49.49 0 01-.2.143l-9.14 2.594.24-.039zm-27.94-31.691l28.18 30.613 7.98-2.315-27.94-30.454a.46.46 0 01-.04-.2.46.46 0 01.04-.199l1.92-10.337c.01-.093.06-.18.12-.25s.14-.122.24-.15a.426.426 0 01.47 0l35.41 38.357 7.99-2.275-42.44-45.7a.897.897 0 010-.4l1.92-10.337a.434.434 0 01.13-.231.45.45 0 01.23-.128.596.596 0 01.52 0l49.74 54.082 8.5-2.475 7.58-40.91-28.18-30.654-8.54 2.475-5.67 30.733a.567.567 0 01-.12.25.577.577 0 01-.24.15.563.563 0 01-.52 0L1328 29.027l-8.58 2.474-7.54 40.87zm66.18 10.816a.52.52 0 01-.36 0l-21.39-23.23a.818.818 0 010-.438l5.74-31.013a.58.58 0 01.12-.254.518.518 0 01.24-.145.514.514 0 01.24-.064c.09 0 .17.022.24.064l21.4 23.23a.425.425 0 010 .439l-5.75 31.012a.422.422 0 01-.12.255.434.434 0 01-.24.144h-.12zm-20.84-23.948l20.52 22.312 5.51-29.815-20.52-22.272-5.51 29.775zM1466.4 67.584a.503.503 0 01-.2.04.54.54 0 01-.2-.04l-28.54-31.013a.456.456 0 01-.04-.2c0-.068.01-.136.04-.199l7.63-41.43c.01-.09.04-.174.1-.245.05-.07.13-.124.22-.153l9.18-2.635a.527.527 0 01.52 0l20.71 22.471 5.51-29.974a.46.46 0 01.13-.181.403.403 0 01.19-.099l9.1-2.594a.46.46 0 01.26-.085c.1 0 .19.03.26.085l28.54 31.012a.425.425 0 010 .44l-7.58 41.23a.628.628 0 01-.36.359l-9.1 2.594a.45.45 0 01-.24.07.425.425 0 01-.24-.07l-49.3-53.523-1.68 9.06 42.56 46.259c.03.075.05.157.05.24a.649.649 0 01-.2.456.606.606 0 01-.21.142l-9.02 2.595a.563.563 0 01-.52 0l-34.93-37.878-1.68 9.06 28.38 30.893c.05.073.07.155.07.24 0 .084-.02.166-.07.239a.438.438 0 01-.13.208.502.502 0 01-.23.111l-9.1 2.635.12-.12zm-27.94-31.691l28.22 30.653 7.99-2.315-27.95-30.453a.426.426 0 010-.44l1.64-10.217c0-.092.04-.18.1-.251a.395.395 0 01.22-.148.563.563 0 01.52 0l35.41 38.396 7.98-2.315-42.19-45.78a.426.426 0 010-.44l1.91-10.297a.488.488 0 01.36-.399.45.45 0 01.24-.071c.09 0 .17.025.24.071l49.78 54.042 8.5-2.434 7.55-40.951-28.19-30.613-8.5 2.434-5.79 30.773a.567.567 0 01-.12.25.52.52 0 01-.24.15.598.598 0 01-.52 0l-21.15-23.03-8.59 2.474-7.42 40.91zm66.23 10.816a.584.584 0 01-.2.04.505.505 0 01-.2-.04l-21.36-23.23a.425.425 0 010-.438l5.35-31.172a.422.422 0 01.12-.255.434.434 0 01.24-.144.426.426 0 01.24-.071c.08 0 .17.024.24.07l21.39 23.19c.04.144.04.296 0 .44l-5.74 31.052a.584.584 0 01-.13.25.488.488 0 01-.23.149l.28.16zm-20.84-23.948l20.52 22.312 5.5-29.815-20.51-22.311-5.51 29.815z"/><path d="M1318.9 31.542a.362.362 0 01-.18.043.422.422 0 01-.18-.043L1290 .53a.373.373 0 01-.04-.18c0-.062.01-.124.04-.18l7.47-41.708c.01-.093.06-.18.12-.25s.14-.122.24-.15l9.14-2.634c.07-.05.16-.076.26-.076.09 0 .18.026.26.076L1328.2-22.1l5.55-29.974a.537.537 0 01.28-.36l9.18-2.674a.526.526 0 01.52 0l28.5 31.013a.44.44 0 010 .319l-7.62 41.39a.446.446 0 01-.13.213.49.49 0 01-.23.106l-9.06 2.634a.493.493 0 01-.26.076.493.493 0 01-.26-.076l-49.18-53.324-1.68 9.06 42.56 46.26a.502.502 0 010 .479.633.633 0 01-.14.223.56.56 0 01-.22.136l-9.02 2.594a.562.562 0 01-.52 0l-34.93-37.837-1.68 9.06 28.38 30.853a.506.506 0 010 .479.394.394 0 01-.11.222.454.454 0 01-.21.137l-9.14 2.634h.12zm-27.94-31.69l28.18 30.652 7.99-2.355-27.95-30.413a.548.548 0 01-.04-.22c0-.075.01-.15.04-.22l1.92-10.337a.434.434 0 01.13-.23.45.45 0 01.23-.129.49.49 0 01.24-.058c.08 0 .16.02.24.058l35.41 38.396 7.98-2.315-42.44-45.7a.818.818 0 010-.439l1.92-10.297a.488.488 0 01.36-.4.527.527 0 01.52 0l49.74 54.043 8.5-2.435 7.59-40.95-28.19-30.614-8.54 2.435-5.79 30.892a.422.422 0 01-.12.255.434.434 0 01-.24.144.527.527 0 01-.52 0l-21.15-22.99-8.59 2.475-7.42 40.751zm66.18 10.816a.569.569 0 01-.35 0l-21.48-23.47a.818.818 0 010-.438l5.75-31.012a.423.423 0 01.12-.255.435.435 0 01.24-.145.527.527 0 01.52 0l21.35 23.19a.425.425 0 010 .439l-5.75 31.052a.494.494 0 01-.12.231.527.527 0 01-.24.128l-.04.28zm-20.83-23.948l20.52 22.311 5.42-29.815-20.51-22.311-5.43 29.815zM112.91 614.869a.404.404 0 01-.36 0l-28.582-31.012a.598.598 0 010-.359l7.505-41.51a.48.48 0 01.32-.399l9.181-2.634a.558.558 0 01.519 0l20.718 22.511 5.548-30.015a.478.478 0 01.4-.359l9.061-2.634a.446.446 0 01.479 0l28.423 30.893a.645.645 0 010 .359l-7.665 41.389a.48.48 0 01-.319.36l-9.142 2.634a.524.524 0 01-.479 0l-49.02-53.364-1.677 9.061 42.554 46.259a.524.524 0 010 .479.627.627 0 01-.143.216.627.627 0 01-.216.143l-9.022 2.594a.478.478 0 01-.519 0l-34.93-37.877-1.676 9.1 28.383 30.853a.524.524 0 010 .479.484.484 0 01-.36.359l-9.101 2.594.12-.12zm-27.944-31.69l28.103 30.653 7.984-2.315-27.943-30.454a.357.357 0 010-.399l1.916-10.337a.6.6 0 01.08-.4.442.442 0 01.479 0l35.448 38.516 7.984-2.315-42.115-45.859a.442.442 0 010-.4l1.916-10.297a.479.479 0 01.36-.399.513.513 0 01.478 0l49.779 54.082 8.503-2.475 7.545-40.911-28.183-30.653-8.503 2.475-5.748 30.853a.606.606 0 01-.359.399.48.48 0 01-.519 0l-21.157-22.99-8.583 2.474-7.465 40.752zm66.026 10.696a.516.516 0 01-.359 0l-21.397-23.229a.572.572 0 010-.439l5.789-31.052a.477.477 0 01.359-.4.525.525 0 01.479 0l21.317 23.19a.568.568 0 010 .439l-5.749 31.052a.469.469 0 01-.128.231.469.469 0 01-.231.128l-.08.08zm-20.837-23.948l20.518 22.312 5.509-29.815-20.519-22.272-5.508 29.775zM301.886 795.076a.475.475 0 01-.359 0l-28.542-31.012a.516.516 0 010-.359l7.624-41.549a.724.724 0 01.359-.4l9.182-2.634a.523.523 0 01.519 0l20.518 22.431 5.549-29.974a.56.56 0 01.359-.32l9.102-2.594a.439.439 0 01.519 0l28.542 31.012c.04.103.04.217 0 .32l-7.505 41.469a.635.635 0 01-.28.359l-9.181 2.635a.524.524 0 01-.479 0l-49.22-53.484-1.876 9.06 42.633 46.22a.55.55 0 010 .479.482.482 0 01-.319.359l-9.062 2.594a.512.512 0 01-.479 0l-34.969-37.877-1.676 9.1 28.422 30.853a.475.475 0 010 .479.555.555 0 01-.359.319l-9.102 2.634.08-.12zm-27.943-31.69l28.182 30.653 7.984-2.315-27.943-30.454a.433.433 0 010-.439l1.876-10.297a.523.523 0 01.359-.4.56.56 0 01.519 0l35.409 38.397 7.983-2.315-42.394-45.701a.44.44 0 010-.439l1.877-10.297a.592.592 0 01.359-.399.476.476 0 01.519 0l49.739 54.042 8.503-2.435 7.584-40.951-28.302-30.413-8.503 2.434-5.709 30.733a.477.477 0 01-.359.4.524.524 0 01-.479 0l-21.157-23.03-8.582 2.474-7.465 40.752zm66.185 10.816a.475.475 0 01-.359 0l-21.357-23.229a.402.402 0 010-.399l5.709-31.053a.603.603 0 01.359-.399.478.478 0 01.519 0l21.357 23.229a.493.493 0 010 .4l-5.749 31.052a.592.592 0 01-.359.399h-.12zm-20.837-23.948l20.558 22.311 5.509-29.814-20.519-22.312-5.548 29.815zM239.572 578.828a.475.475 0 01-.359 0l-28.342-31.172a.432.432 0 01-.085-.259c0-.094.029-.185.085-.26l7.584-41.39a.607.607 0 01.359-.399l9.182-2.634a.558.558 0 01.519 0l20.678 22.471 5.549-29.975a.636.636 0 01.279-.359l9.181-2.634a.48.48 0 01.519 0l28.542 31.012c.04.103.04.217 0 .32l-7.664 41.349a.484.484 0 01-.359.36l-9.062 2.594a.525.525 0 01-.479 0l-49.18-53.483-1.717 9.06 42.235 46.498a.569.569 0 010 .479.482.482 0 01-.32.36l-9.061 2.594a.526.526 0 01-.479 0l-34.969-37.877-1.677 9.06 28.422 30.892a.437.437 0 010 .44.518.518 0 01-.359.359l-9.102 2.634.08-.04zm-27.943-31.691l28.103 30.773 7.984-2.315-27.943-30.453a.437.437 0 010-.44l1.876-10.337a.565.565 0 01.359-.359.558.558 0 01.519 0l35.408 38.396 7.984-2.315-42.314-45.82a.433.433 0 010-.439l1.876-10.298a.524.524 0 01.359-.399.484.484 0 01.519 0l49.739 54.042 8.503-2.434 7.585-40.951-28.183-30.613-8.503 2.435-5.708 30.733a.487.487 0 01-.36.399.44.44 0 01-.479 0l-21.197-23.03-8.582 2.475-7.545 40.95zm66.106 10.817a.484.484 0 01-.359 0l-21.357-23.23a.433.433 0 010-.439l5.708-31.012a.594.594 0 01.36-.399.476.476 0 01.519 0l21.237 23.149a.446.446 0 010 .439l-5.709 31.053a.606.606 0 01-.359.399l-.04.04zm-20.838-23.948l20.558 22.311 5.509-29.815-20.558-22.311-5.509 29.815zM154.425 759.035a.401.401 0 01-.359 0l-28.542-31.012a.401.401 0 010-.36l7.624-41.549a.52.52 0 01.36-.399l9.141-2.634a.558.558 0 01.519 0l20.558 22.551 5.549-29.975a.477.477 0 01.359-.319l9.301-2.834a.482.482 0 01.519 0v.199l28.423 30.933a.485.485 0 010 .319l-7.585 41.59a.482.482 0 01-.279.399l-9.142 2.634a.595.595 0 01-.519 0l-49.34-53.683-1.676 9.06 42.553 46.259a.513.513 0 010 .479.558.558 0 01-.359.36l-9.022 2.594a.558.558 0 01-.519 0l-34.929-37.838-1.676 9.061 28.382 30.852a.554.554 0 010 .479.434.434 0 01-.319.36l-9.142 2.634.12-.16zm-27.943-31.691l28.183 30.653 7.983-2.315-27.943-30.453a.555.555 0 010-.439l1.916-10.338a.486.486 0 01.359-.359.528.528 0 01.48 0l35.448 38.396 7.983-2.315-42.473-45.7a.799.799 0 010-.439l1.796-10.377a.477.477 0 01.359-.399.517.517 0 01.519 0l49.819 54.281 8.503-2.434 7.465-40.951-28.183-30.454-8.503 2.435-5.668 30.733a.479.479 0 01-.36.399.558.558 0 01-.519 0l-21.157-22.99-8.582 2.475-7.425 40.591zm66.186 10.817a.613.613 0 01-.36 0l-21.356-23.389a.799.799 0 010-.439l5.748-31.013a.474.474 0 01.359-.399.527.527 0 01.519 0l21.317 23.349a.444.444 0 010 .439l-5.748 31.052a.486.486 0 01-.36.36l-.119.04zm-20.838-23.948l20.518 22.311 5.509-29.815-20.518-22.311-5.509 29.815z"/><path d="M207.318 704.713a.507.507 0 01-.399 0l-28.503-31.012a.446.446 0 010-.399l7.625-41.43a.642.642 0 01.319-.399l9.182-2.634a.514.514 0 01.519 0l20.718 22.471 5.508-29.975a.602.602 0 01.24-.359l9.221-2.634a.435.435 0 01.479 0l28.502 30.972a.437.437 0 010 .439l-7.664 41.35a.521.521 0 01-.28.359l-9.181 2.634a.512.512 0 01-.479 0l-49.22-53.523-1.677 9.18 42.594 46.14a.56.56 0 010 .479.554.554 0 01-.359.359l-9.022 2.594a.558.558 0 01-.519 0l-34.929-37.877-1.677 9.1 28.383 30.853a.475.475 0 010 .479.483.483 0 01-.36.319l-9.101 2.634.08-.12zm-27.944-31.691l28.223 30.654 7.984-2.315-27.943-30.454a.433.433 0 010-.439l1.916-10.298a.478.478 0 01.359-.399.525.525 0 01.479 0l35.408 38.397 7.984-2.275-42.474-45.741a.44.44 0 010-.439l1.916-10.297a.52.52 0 01.36-.399.437.437 0 01.479 0l49.779 54.042 8.502-2.435 7.425-40.871-28.182-30.613-8.503 2.435-5.669 30.733a.515.515 0 01-.359.399.598.598 0 01-.519 0l-21.157-22.91-8.583 2.474-7.425 40.751zm66.226 10.817a.401.401 0 01-.359 0l-21.397-23.229a.402.402 0 010-.4l5.749-31.052a.515.515 0 01.359-.399.44.44 0 01.479 0l21.396 23.229a.51.51 0 010 .4l-5.748 31.052a.52.52 0 01-.359.399h-.12zm-20.838-23.948l20.519 22.312 5.509-29.736-20.519-22.311-5.509 29.735z"/><path d="M186.48 632.431a.401.401 0 01-.359 0l-28.542-31.012a.633.633 0 010-.399l7.624-41.43a.486.486 0 01.36-.359l9.141-2.674a.476.476 0 01.519 0l20.718 22.471 5.549-29.975a.717.717 0 01.359-.319l9.022-2.754a.512.512 0 01.479 0l28.502 30.972a.44.44 0 010 .439l-7.665 41.39a.475.475 0 01-.319.359l-9.022 2.674a.512.512 0 01-.479 0l-49.22-53.483-1.676 9.1 42.553 46.259a.437.437 0 010 .439.558.558 0 01-.359.36l-9.022 2.594a.523.523 0 01-.519 0l-34.929-37.877-1.676 9.1 28.382 30.852a.482.482 0 010 .479.433.433 0 01-.319.32l-9.142 2.634.04-.16zm-27.943-31.691l28.183 30.653 7.983-2.314-27.943-30.454a.552.552 0 010-.439l1.916-10.298a.48.48 0 01.359-.399.528.528 0 01.48 0l35.408 38.397 7.983-2.276-42.433-45.7a.799.799 0 010-.439l1.916-10.297a.512.512 0 01.368-.38.51.51 0 01.51.14l49.579 54.002 8.503-2.434 7.465-40.951-27.943-30.613-8.543 2.434-5.669 30.773a.479.479 0 01-.359.36.523.523 0 01-.519 0l-21.157-23.03-8.582 2.474-7.505 40.791zm66.186 10.817a.404.404 0 01-.36 0l-21.476-23.389a.75.75 0 010-.399l5.748-31.053a.52.52 0 01.359-.399.446.446 0 01.479 0l21.357 23.389a.403.403 0 010 .399l-5.748 31.053a.52.52 0 01-.359.399zm-20.838-23.948l20.438 22.232 5.509-29.815-20.518-22.072-5.429 29.655zM630.02 739.957a.484.484 0 01-.359 0l-28.542-31.013a.712.712 0 010-.399l7.625-41.429a.602.602 0 01.359-.4l9.181-2.634a.645.645 0 01.519 0l20.678 22.511 5.549-30.015a.398.398 0 01.319-.279l9.102-2.634a.558.558 0 01.519 0l28.542 31.012a.444.444 0 010 .439l-7.665 41.35a.437.437 0 01-.359.319l-9.062 2.635a.44.44 0 01-.479 0l-49.14-53.404-1.676 9.06 42.553 46.259a.513.513 0 010 .479.48.48 0 01-.319.36l-9.062 2.594a.44.44 0 01-.479 0l-34.969-37.877-1.676 9.1 28.422 30.852a.569.569 0 010 .479.643.643 0 01-.359.36l-9.102 2.634-.12-.359zm-27.943-31.691l28.183 30.653 7.984-2.355L610.3 706.15a.44.44 0 010-.439l1.877-10.337a.558.558 0 01.359-.359.558.558 0 01.519 0l35.408 38.396 7.984-2.315-42.394-45.7a.437.437 0 010-.439l1.916-10.298a.441.441 0 01.319-.399.48.48 0 01.519 0l49.779 54.042 8.463-2.475 7.585-40.91-28.183-30.613-8.503 2.434-5.708 30.733a.443.443 0 01-.32.399.476.476 0 01-.519 0l-21.157-22.99-8.582 2.475-7.585 40.911zm66.186 10.816a.708.708 0 01-.36 0l-21.356-23.229a.437.437 0 010-.439l5.748-31.013a.433.433 0 01.096-.25.435.435 0 01.224-.149.475.475 0 01.518 0l21.357 23.19a.595.595 0 010 .439l-5.748 31.052a.556.556 0 01-.359.359l-.12.04zm-20.838-23.948l20.558 22.312 5.509-29.815-20.518-22.312-5.549 29.815zM567.267 522.751a.727.727 0 01-.359 0l-28.702-31.172a.613.613 0 010-.36l7.625-41.429a.518.518 0 01.359-.399l9.182-2.635a.61.61 0 01.519 0l20.678 22.511 5.548-30.014a.486.486 0 01.36-.319l9.101-2.635a.444.444 0 01.439 0l28.542 30.973a.627.627 0 010 .359l-7.664 41.39a.562.562 0 01-.319.359l-9.142 2.634a.512.512 0 01-.479 0l-49.22-53.443-1.677 9.06 42.674 46.419a.524.524 0 010 .479.436.436 0 01-.32.319l-9.061 2.634a.437.437 0 01-.479 0l-34.69-38.157-1.676 9.101 28.422 30.852a.525.525 0 010 .479.8.8 0 01-.359.359l-9.102 2.595-.2.04zm-27.943-31.691l28.183 30.613 7.984-2.315-27.944-30.454a.36.36 0 010-.399l1.877-10.337a.592.592 0 01.359-.399.476.476 0 01.519 0l35.408 38.396 7.984-2.315-42.394-45.7a.403.403 0 010-.399l1.916-10.338a.434.434 0 01.319-.359.48.48 0 01.519 0l49.62 54.202 8.502-2.475 7.585-40.911-28.183-30.653-8.503 2.475-5.708 30.733a.566.566 0 01-.319.399.48.48 0 01-.519 0l-21.157-22.99-8.583 2.475-7.465 40.751zm66.106 11.016a.727.727 0 01-.359 0l-21.357-23.23a.44.44 0 010-.439l5.709-31.012a.517.517 0 01.359-.399.558.558 0 01.519 0l21.356 23.229a.595.595 0 010 .439l-5.588 30.773a.52.52 0 01-.36.399l-.279.24zm-20.838-23.948l20.559 22.311 5.508-29.815-20.558-22.431-5.509 29.935zM355.417 740.755a.527.527 0 01-.359 0l-28.422-31.132a.555.555 0 010-.36l7.624-41.469a.477.477 0 01.36-.359l9.141-2.635a.524.524 0 01.519 0l20.718 22.511 5.549-30.014a.358.358 0 010-.2.44.44 0 01.359-.239l9.062-2.635a.484.484 0 01.519 0l28.502 30.973a.524.524 0 010 .479l-7.665 41.35a.478.478 0 01-.359.359l-9.102 2.634a.681.681 0 01-.479 0v-.199l-49.379-53.244-1.677 9.1 42.554 46.259a.478.478 0 010 .479.486.486 0 01-.36.319l-9.021 2.595a.527.527 0 01-.519 0l-34.929-37.878-1.677 9.1 28.382 30.853a.512.512 0 010 .479.438.438 0 01-.319.319l-9.141 2.635.119-.08zm-27.943-31.691l28.183 30.613 7.984-2.315-27.944-30.453a.573.573 0 010-.44l1.916-10.297a.479.479 0 01.36-.399.435.435 0 01.479 0l35.408 38.356 7.984-2.275-42.434-45.7a.799.799 0 010-.439l1.916-10.298a.486.486 0 01.359-.359.6.6 0 01.519 0l49.739 54.082 8.503-2.475 7.585-40.95-28.183-30.613-8.543 2.474-5.668 30.733a.485.485 0 01-.36.359.514.514 0 01-.519 0l-21.276-22.95-8.583 2.475-7.425 40.871zm66.186 10.776a.401.401 0 01-.359 0l-21.397-23.189a.552.552 0 010-.439l5.748-31.052a.477.477 0 01.36-.36.475.475 0 01.479 0l21.396 23.23a.43.43 0 010 .439l-5.748 31.012a.479.479 0 01-.359.399l-.12-.04zm-20.838-23.947l20.518 22.311 5.509-29.815-20.518-22.311-5.509 29.815zM366.555 541.989a.731.731 0 01-.399 0l-28.543-31.013a.727.727 0 010-.359l7.665-41.589a.437.437 0 01.359-.359l9.142-2.635a.523.523 0 01.519 0l20.678 22.511 5.548-30.014a.443.443 0 01.36-.32l9.101-2.634a.443.443 0 01.479 0 .198.198 0 010 .2l28.462 30.892a.477.477 0 010 .36l-7.664 41.389a.566.566 0 01-.319.399l-9.142 2.635a.524.524 0 01-.479 0l-49.22-53.484-1.677 9.1 42.554 46.26a.475.475 0 010 .478.56.56 0 01-.359.32l-9.022 2.594a.475.475 0 01-.519 0l-34.929-37.877-1.677 9.1 28.383 30.853a.524.524 0 010 .479.483.483 0 01-.359.319l-9.102 2.634.16-.239zm-27.944-31.931l28.223 30.613 7.984-2.314-27.943-30.454a.434.434 0 010-.439l1.916-10.298a.438.438 0 01.319-.399.48.48 0 01.519 0l35.408 38.357 7.984-2.275-42.434-45.661a.444.444 0 010-.439l1.916-10.297a.484.484 0 01.36-.36.44.44 0 01.479 0l49.779 54.042 8.502-2.434 7.545-40.911-28.183-30.653-8.503 2.475-5.668 30.732a.72.72 0 01-.359.4.484.484 0 01-.519 0l-21.157-22.99-8.583 2.474-7.585 40.831zm66.226 10.777a.525.525 0 01-.399 0l-21.357-23.19a.44.44 0 010-.439l5.749-31.052a.473.473 0 01.359-.359.435.435 0 01.479 0l21.396 23.229a.799.799 0 010 .439l-5.748 31.013a.478.478 0 01-.359.399l-.12-.04zm-20.838-23.948l20.519 22.311 5.509-29.815-20.519-22.311-5.509 29.815zM534.774 649.753a.477.477 0 01-.36 0l-28.502-30.972a.48.48 0 010-.519l7.625-41.39a.516.516 0 01.319-.399l9.181-2.634a.517.517 0 01.519 0l20.678 22.471 5.549-29.975a.445.445 0 01.24-.359l9.221-2.634h.479l28.542 30.972a.437.437 0 010 .439l-7.664 41.35a.562.562 0 01-.28.399l-9.181 2.634a.513.513 0 01-.479 0l-49.22-53.483-1.677 9.1 42.394 46.14a.44.44 0 010 .478.48.48 0 01-.319.36l-9.022 2.594a.478.478 0 01-.519 0l-34.929-37.877-1.717 9.1 28.423 30.852a.482.482 0 010 .479.48.48 0 01-.36.32l-9.101 2.634.16-.08zm-27.944-31.691l28.183 30.653 7.984-2.315-27.943-30.453a.434.434 0 010-.439l1.916-10.298a.438.438 0 01.319-.399.558.558 0 01.519 0l35.408 38.396 7.984-2.314-42.194-45.82a.437.437 0 010-.44l1.916-10.297a.476.476 0 01.319-.399.476.476 0 01.519 0l49.779 54.042 8.463-2.435 7.584-40.95-28.182-30.614-8.503 2.435-5.709 30.733a.434.434 0 01-.319.399.475.475 0 01-.519 0l-21.157-23.03-8.583 2.475-7.784 41.07zm66.226 10.817a.525.525 0 01-.399 0l-21.357-23.23a.43.43 0 010-.439l5.748-31.012a.556.556 0 01.32-.399.475.475 0 01.519 0l21.396 23.229c.04.13.04.269 0 .399l-5.748 31.053a.52.52 0 01-.359.399h-.12zm-20.838-23.948l20.518 22.311 5.39-29.775-20.519-22.311-5.389 29.775z"/><path d="M408.15 685.954a.516.516 0 01-.359 0l-28.582-31.012a.516.516 0 010-.359l7.625-41.43a.48.48 0 01.359-.399l9.141-2.634a.6.6 0 01.519 0l20.718 22.511 5.549-30.015a.645.645 0 01.239-.319l9.222-2.674a.512.512 0 01.479 0l28.502 30.972a.553.553 0 010 .479l-7.664 41.35a.442.442 0 01-.28.319l-9.181 2.674a.513.513 0 01-.479 0l-49.22-53.603-1.677 9.06 42.554 46.259a.528.528 0 010 .479.486.486 0 01-.36.32l-9.021 2.634a.48.48 0 01-.519 0l-34.929-37.877-1.677 9.1 28.382 30.852a.513.513 0 010 .479.479.479 0 01-.359.36l-9.101 2.594.119-.12zm-27.943-31.691l28.223 30.613 7.984-2.314-27.944-30.454a.364.364 0 010-.399l1.916-10.338a.52.52 0 01.36-.399.56.56 0 01.479 0l35.408 38.397 7.984-2.315-42.195-45.86a.45.45 0 010-.4l1.916-10.337a.476.476 0 01.36-.359.44.44 0 01.479 0l49.779 54.082 8.502-2.475 7.545-40.911-28.183-30.653-8.502 2.475-5.869 31.172a.592.592 0 01-.359.399.514.514 0 01-.519 0l-21.157-22.99-8.582 2.475-7.625 40.591zm66.186 10.817a.527.527 0 01-.359 0l-21.477-23.309a.555.555 0 010-.44l5.748-31.012a.483.483 0 01.36-.399.525.525 0 01.479 0l21.396 23.229a.555.555 0 010 .439l-5.748 31.013a.474.474 0 01-.359.399l-.04.08zm-20.838-23.948l20.518 22.311 5.509-29.815-20.518-22.271-5.509 29.775zM502.798 776.556a.397.397 0 01-.359 0l-28.582-31.012a.516.516 0 010-.359l7.665-41.549a.632.632 0 01.319-.4l9.181-2.634a.527.527 0 01.519 0l20.718 22.471 5.549-29.975a.643.643 0 01.399-.319l9.062-2.594a.439.439 0 01.519 0l28.502 31.012c.04.103.04.217 0 .32l-7.665 41.389a.629.629 0 01-.359.359l-9.101 2.595a.446.446 0 01-.479 0 .198.198 0 010-.2l-49.3-53.244-1.677 9.101 42.514 46.219a.564.564 0 010 .479.556.556 0 01-.36.359l-9.021 2.594a.559.559 0 01-.519 0l-34.929-37.877-1.677 9.1 28.382 30.853a.47.47 0 010 .479.437.437 0 01-.359.319l-9.101 2.634.159-.12zm-27.943-31.69l28.223 30.653 7.984-2.315-27.944-30.454a.444.444 0 010-.439l1.916-10.297a.479.479 0 01.36-.399.512.512 0 01.479 0l35.408 38.396 7.984-2.275-42.474-45.741a.55.55 0 010-.439l1.916-10.297a.518.518 0 01.359-.399.435.435 0 01.479 0l49.779 54.042 8.503-2.435 7.425-40.871-28.183-30.613-8.503 2.435-5.668 30.733a.52.52 0 01-.359.399.562.562 0 01-.519 0l-21.157-23.03-8.583 2.475-7.425 40.871zm66.226 10.816a.404.404 0 01-.36 0l-21.396-23.229a.51.51 0 010-.399l5.748-31.053a.52.52 0 01.359-.399.446.446 0 01.479 0l21.397 23.229a.529.529 0 010 .4l-5.748 31.052a.52.52 0 01-.36.399h-.119zm-20.838-23.948l20.518 22.312 5.509-29.815-20.518-22.312-5.509 29.815z"/><path d="M461.003 631.633a.475.475 0 01-.359 0l-28.542-31.012a.518.518 0 010-.36l7.664-41.549a.484.484 0 01.32-.399l9.181-2.634a.514.514 0 01.519 0l20.678 22.471 5.549-29.975a.476.476 0 01.319-.399l9.181-2.634a.437.437 0 01.479 0l28.503 31.012c.04.103.04.217 0 .319l-7.665 41.35a.638.638 0 01-.359.359l-9.102 2.595a.524.524 0 01-.479 0l-49.22-53.484-1.676 9.061 42.553 46.259a.437.437 0 010 .479.482.482 0 01-.319.359l-9.022 2.594a.475.475 0 01-.519 0l-34.929-37.837-1.716 9.06 28.422 30.853a.56.56 0 010 .479.546.546 0 01-.137.222.546.546 0 01-.222.137l-9.102 2.634v.04zm-27.943-31.691l28.183 30.653 7.983-2.315-27.943-30.453a.44.44 0 010-.439l1.916-10.338a.436.436 0 01.32-.359.475.475 0 01.519 0l35.408 38.396 7.983-2.315-42.194-45.82a.444.444 0 010-.439l1.916-10.297a.484.484 0 01.32-.399.476.476 0 01.519 0l49.779 54.042 8.462-2.435 7.585-40.951-28.502-30.493-8.503 2.434-5.708 30.733a.44.44 0 01-.32.4.438.438 0 01-.519 0l-21.157-22.99-8.582 2.474-7.465 40.911zm66.225 10.816a.505.505 0 01-.399 0l-21.356-23.229a.433.433 0 010-.439l5.748-31.012a.476.476 0 01.319-.399.482.482 0 01.519 0l21.397 23.189a.799.799 0 010 .439l-5.749 31.052a.479.479 0 01-.359.36l-.12.039zm-20.837-23.947l20.518 22.311 5.509-29.815-20.518-22.311-5.509 29.815z"/><path d="M440.205 559.35a.397.397 0 01-.359 0l-28.542-31.012a.678.678 0 010-.399l7.465-41.829a.555.555 0 01.319-.399l9.182-2.634a.51.51 0 01.518 0l20.718 22.471 5.549-30.015a.572.572 0 01.359-.319l9.102-2.595a.44.44 0 01.479 0l28.502 31.013a.43.43 0 010 .439l-7.465 41.908a.48.48 0 01-.319.36l-9.141 2.634a.528.528 0 01-.48 0l-49.22-53.483-1.676 9.06 42.553 46.259a.512.512 0 010 .479.565.565 0 01-.359.359l-9.022 2.315a.52.52 0 01-.518 0l-34.93-37.837-1.676 9.06 28.382 30.892a.437.437 0 010 .439.476.476 0 01-.359.36l-9.102 2.634.04-.16zm-27.943-31.691l28.223 30.653 7.984-2.315-27.944-30.453a.444.444 0 010-.439l1.916-10.338a.484.484 0 01.36-.359.44.44 0 01.479 0l35.408 38.396 7.984-2.314-42.195-45.821a.568.568 0 010-.439l1.916-10.297a.479.479 0 01.36-.399.437.437 0 01.479 0l49.779 54.042 8.502-2.435 7.545-40.95-28.183-30.614-8.502 2.435-5.669 30.733a.518.518 0 01-.359.399.48.48 0 01-.519 0l-21.157-22.99-8.583 2.475-7.824 41.03zm66.066 10.817a.4.4 0 01-.359 0l-21.397-23.23a.44.44 0 010-.439l5.748-31.012a.479.479 0 01.36-.399.44.44 0 01.479 0l21.396 23.189a.555.555 0 010 .439l-5.708 30.973a.486.486 0 01-.359.359l-.16.12zm-20.838-23.948l20.519 22.311 5.508-29.815-20.518-22.311-5.509 29.815zM703.91 757.518a.516.516 0 01-.359 0l-28.582-31.052a.516.516 0 010-.359l7.665-41.55a.472.472 0 01.319-.359l9.181-2.674a.482.482 0 01.519 0l20.718 22.471 5.549-29.975a.527.527 0 01.279-.359l9.182-2.634a.476.476 0 01.519 0l28.502 30.972c.04.103.04.217 0 .319l-7.625 41.63a.518.518 0 01-.359.359l-9.101 2.594a.516.516 0 01-.48 0 .363.363 0 010-.239l-49.18-53.404-1.676 9.1 42.553 46.259a.437.437 0 010 .439.476.476 0 01-.359.36l-9.022 2.594a.595.595 0 01-.519 0l-34.929-37.877-1.676 9.1 28.382 30.853a.475.475 0 010 .478.436.436 0 01-.359.32l-9.102 2.634h-.04zm-27.943-31.731l28.223 30.653 7.984-2.315-27.944-30.453a.444.444 0 010-.439l1.916-10.298a.483.483 0 01.36-.399.524.524 0 01.479 0l35.408 38.396 7.984-2.275-42.474-45.74a.55.55 0 010-.439l1.916-10.297a.523.523 0 01.359-.4.569.569 0 01.479 0l49.779 54.043 8.503-2.435 7.585-40.951-28.223-30.613-8.503 2.435-5.668 30.733a.52.52 0 01-.36.399.558.558 0 01-.519 0l-21.157-23.03-8.582 2.475-7.545 40.95zm66.226 10.817a.403.403 0 01-.36 0l-21.396-23.23a.505.505 0 010-.399l5.389-31.292a.524.524 0 01.359-.399.525.525 0 01.479 0l21.397 23.23a.524.524 0 010 .399l-5.748 31.052a.52.52 0 01-.36.399l.24.24zm-20.838-23.948l20.518 22.311 5.509-29.815-20.518-22.311-5.509 29.815zM788.858 576.553a.594.594 0 01-.359 0l-28.542-31.012a.475.475 0 010-.359l7.624-41.59a.486.486 0 01.36-.359l9.141-2.634a.439.439 0 01.519 0l20.718 22.511 5.549-30.015a.444.444 0 01.095-.251.444.444 0 01.224-.148l9.141-2.634a.559.559 0 01.44 0l28.502 30.972a.488.488 0 010 .32l-7.625 41.389a.478.478 0 01-.359.32l-9.062 2.634a.595.595 0 01-.519 0l-49.22-53.484-1.676 9.101 42.553 46.259a.478.478 0 010 .479.437.437 0 01-.359.319l-9.022 2.594a.514.514 0 01-.519 0l-34.929-37.877-1.676 9.1 28.382 30.853a.512.512 0 010 .479.443.443 0 01-.319.319l-9.142 2.634.08.08zm-27.943-31.691l28.183 30.613 7.983-2.315-27.943-30.453a.552.552 0 010-.439l1.916-10.298a.48.48 0 01.359-.399.446.446 0 01.479 0l35.449 38.357 7.983-2.276-42.473-45.62a.78.78 0 010-.439l1.916-10.298a.478.478 0 01.359-.359.523.523 0 01.519 0l49.739 54.042 8.503-2.434 7.584-40.951-28.182-30.613-8.543 2.474-5.669 30.733a.479.479 0 01-.359.36.523.523 0 01-.519 0l-21.157-22.99-8.583 2.474-7.544 40.831zm66.185 10.777a.44.44 0 01-.359 0l-21.396-23.23a.594.594 0 010-.399l5.748-31.052a.477.477 0 01.359-.359.517.517 0 01.519 0l21.357 23.229a.444.444 0 010 .439l-5.748 31.013a.482.482 0 01-.32.399l-.16-.04zm-20.837-23.948l20.518 22.311 5.509-29.815-20.598-22.111-5.429 29.615zM662.195 612.754a.432.432 0 01-.359 0l-28.542-31.012a.516.516 0 010-.359l7.624-41.55a.52.52 0 01.359-.399l9.142-2.634a.603.603 0 01.559 0l20.678 22.471 5.549-29.975a.474.474 0 01.319-.399l9.141-2.634a.398.398 0 01.479 0l28.542 31.012a.432.432 0 010 .32l-7.664 41.349a.484.484 0 01-.359.36l-9.062 2.594a.525.525 0 01-.479 0l-49.22-53.483-1.677 9.06 42.554 46.259a.525.525 0 010 .479.477.477 0 01-.319.359l-9.062 2.594a.433.433 0 01-.479 0l-34.969-37.837-1.677 9.06 28.423 30.853a.44.44 0 010 .479.478.478 0 01-.32.359l-9.101 2.634-.08.04zm-27.943-31.691l28.182 30.654 7.984-2.315-27.943-30.454a.595.595 0 010-.439l1.916-10.337a.556.556 0 01.359-.36.48.48 0 01.519 0l35.408 38.397 7.984-2.315-42.154-45.82a.437.437 0 010-.439l1.876-10.298a.518.518 0 01.359-.399.482.482 0 01.519 0L699 600.98l8.503-2.435 7.585-40.95-28.183-30.614-8.503 2.435-5.708 30.733a.479.479 0 01-.36.399.397.397 0 01-.479 0l-21.197-22.99-8.582 2.475-7.824 41.03zm66.185 10.817a.484.484 0 01-.359 0l-21.357-23.23a.44.44 0 010-.439l5.709-31.012a.519.519 0 01.359-.399.478.478 0 01.519 0l21.357 23.189a.44.44 0 010 .439l-5.709 31.053a.554.554 0 01-.359.359l-.16.04zM679.6 567.932l20.558 22.311 5.509-29.815-20.559-22.311-5.508 29.815zM904.384 738.839a.598.598 0 01-.36 0l-28.542-31.013a.484.484 0 010-.399l7.465-41.709a.486.486 0 01.359-.359l9.142-2.634a.397.397 0 01.519 0l20.718 22.511 5.548-30.015a.4.4 0 01.28-.319l9.181-2.674a.513.513 0 01.479 0l28.502 30.972a.437.437 0 010 .439l-7.624 41.39a.486.486 0 01-.359.359l-9.062 2.594a.514.514 0 01-.519 0l-49.22-53.483-1.677 9.1 42.554 46.259a.482.482 0 010 .479.443.443 0 01-.359.32l-9.022 2.594a.514.514 0 01-.519 0l-34.929-37.877-1.677 9.1 28.383 30.852a.525.525 0 010 .479.44.44 0 01-.32.32l-9.141 2.634.2.08zm-27.944-31.691l28.183 30.613 7.984-2.315-27.943-30.453a.78.78 0 010-.439l1.916-10.298a.48.48 0 01.359-.399.558.558 0 01.519 0l35.408 38.356 7.984-2.275-42.155-45.86a.605.605 0 010-.439l1.916-10.297a.522.522 0 01.643-.38c.09.025.171.073.236.14l49.739 54.042 8.503-2.434 7.584-40.951-28.183-30.613-8.542 2.434-5.669 30.773a.473.473 0 01-.359.359.435.435 0 01-.479 0l-21.197-23.029-8.583 2.474-7.864 40.991zm66.186 10.776a.432.432 0 01-.359 0l-21.397-23.229a.594.594 0 010-.399l5.748-31.052a.486.486 0 01.36-.36.57.57 0 01.519 0l21.356 23.23a.43.43 0 010 .439l-5.828 31.052a.441.441 0 01-.319.399l-.08-.08zm-20.838-23.947l20.519 22.311 5.508-29.815-20.518-22.311-5.509 29.815zM915.561 539.714a.4.4 0 01-.359 0l-28.542-30.973a.633.633 0 010-.399l7.624-41.43a.617.617 0 01.132-.242.614.614 0 01.227-.157l9.142-2.634a.516.516 0 01.519 0l20.718 22.471 5.548-29.975a.373.373 0 010-.199.644.644 0 01.36-.28l9.061-2.594a.442.442 0 01.519 0l28.502 31.012a.437.437 0 010 .44l-7.664 41.269a.515.515 0 01-.279.36l-9.182 2.634a.444.444 0 01-.439 0v-.2l-49.18-53.443-1.677 9.1 42.554 46.219a.569.569 0 010 .479.558.558 0 01-.359.359l-9.022 2.595a.6.6 0 01-.519 0l-34.929-37.878-1.677 9.101 28.383 30.852a.482.482 0 010 .479.443.443 0 01-.36.32l-9.101 2.634v.08zm-27.943-31.691l28.222 30.653 7.984-2.315-27.943-30.454a.43.43 0 010-.439l1.916-10.297a.477.477 0 01.359-.399.513.513 0 01.479 0l35.408 38.396 7.984-2.275-42.194-45.86a.799.799 0 010-.439l1.916-10.298a.52.52 0 01.359-.399.446.446 0 01.479 0l49.779 54.042 8.503-2.434 7.545-40.951-28.582-30.374-8.503 2.435-5.669 30.733a.503.503 0 01-.124.249.507.507 0 01-.235.15.595.595 0 01-.519 0l-21.157-23.03-8.582 2.475-7.425 40.831zm66.225 10.816a.397.397 0 01-.359 0l-21.397-23.229a.525.525 0 010-.399l5.749-31.053a.515.515 0 01.359-.399.568.568 0 01.479 0l21.397 23.23a.395.395 0 010 .399l-5.749 31.052a.51.51 0 01-.359.399h-.12zm-20.837-23.948l20.518 22.312 5.509-29.815-20.519-22.312-5.508 29.815zM947.536 412.91a.505.505 0 01-.399 0l-28.542-31.012a.353.353 0 010-.359l7.624-41.43a.444.444 0 01.32-.399l9.181-2.634a.6.6 0 01.519 0l20.678 22.511 5.549-30.015a.639.639 0 01.239-.319l9.222-2.674a.546.546 0 01.479 0l28.544 30.972c.03.075.05.157.05.24 0 .083-.02.164-.05.239l-7.667 41.31a.595.595 0 01-.279.359l-9.181 2.635a.528.528 0 01-.479 0l-49.221-53.444-1.676 9.06L975 404.209a.516.516 0 010 .479.797.797 0 01-.359.36l-9.022 2.594a.475.475 0 01-.518 0l-34.93-37.877-1.716 9.1 28.422 30.852a.554.554 0 010 .479.558.558 0 01-.359.36l-9.102 2.634.12-.28zm-27.943-31.69l28.183 30.613 7.983-2.315-27.943-30.414a.444.444 0 010-.439l1.916-10.337a.518.518 0 01.32-.399.596.596 0 01.519 0l35.408 38.396 7.984-2.315-42.434-45.621a.43.43 0 010-.439l1.916-10.297a.477.477 0 01.359-.399.513.513 0 01.479 0l49.779 54.082 8.503-2.475 7.545-40.911-28.183-30.653-8.503 2.475-5.669 30.733a.592.592 0 01-.359.399.475.475 0 01-.519 0l-21.157-22.99-8.582 2.475-7.545 40.831zm66.225 10.816a.712.712 0 01-.399 0l-21.356-23.229a.437.437 0 010-.439l5.748-31.013a.474.474 0 01.359-.399.443.443 0 01.479 0l21.397 23.19a.799.799 0 010 .439l-5.749 31.052a.478.478 0 01-.359.359l-.12.04zm-20.837-23.948L985.3 390.32l5.508-29.775-20.438-22.112-5.389 29.655z"/><path d="M926.698 340.628a.396.396 0 01-.359 0l-28.582-31.013a.516.516 0 010-.359l7.704-41.709a.484.484 0 01.32-.399l9.181-2.634a.6.6 0 01.519 0l20.718 22.51 5.549-30.014a.549.549 0 01.359-.319l9.102-2.635a.524.524 0 01.479 0l28.502 30.973a.524.524 0 010 .479l-7.665 41.35a.482.482 0 01-.319.359l-9.142 2.634a.51.51 0 01-.479 0l-49.14-53.364-1.676 9.061 42.553 46.259a.512.512 0 010 .479.638.638 0 01-.359.359l-9.022 2.594a.514.514 0 01-.519 0l-34.969-38.037-1.676 9.1 28.382 30.853a.513.513 0 010 .479.478.478 0 01-.359.359l-9.102 2.635zm-27.943-31.691l28.223 30.613 7.984-2.315-27.944-30.454a.36.36 0 010-.399l1.916-10.337a.594.594 0 01.36-.399.546.546 0 01.479 0l35.408 38.396 7.984-2.315-42.195-45.86a.447.447 0 010-.399l1.916-10.298a.48.48 0 01.36-.399.524.524 0 01.479 0l49.779 54.082 8.502-2.474 7.545-40.911-28.183-30.653-8.503 2.474-5.668 30.733a.52.52 0 01-.878.24l-21.157-22.99-8.583 2.475-7.824 41.19zm66.226 10.816a.518.518 0 01-.36 0l-21.396-23.229a.555.555 0 010-.439l5.748-31.013a.48.48 0 01.359-.399.446.446 0 01.479 0l21.397 23.19a.55.55 0 010 .439l-5.868 31.052a.477.477 0 01-.359.359v.04zm-20.838-23.948l20.518 22.272 5.509-29.775-20.798-22.232-5.229 29.735zM1328.32 303.19a.399.399 0 01-.18.038.466.466 0 01-.18-.038l-28.54-31.013a.452.452 0 01-.04-.199c0-.069.01-.137.04-.2l7.63-41.43a.499.499 0 01.12-.231.53.53 0 01.24-.128l9.14-2.674c.07-.05.16-.076.26-.076.09 0 .18.026.26.076l20.71 22.471 5.55-29.975a.599.599 0 01.28-.399l9.18-2.634a.48.48 0 01.24-.071c.09 0 .17.025.24.071l28.51 30.973c.03.066.05.142.05.219 0 .077-.02.153-.05.22l-7.63 41.389a.43.43 0 01-.13.231.445.445 0 01-.23.128l-9.06 2.595a.429.429 0 01-.24.071.429.429 0 01-.24-.071l-49.22-53.483-1.68 9.1 42.44 46.378a.428.428 0 010 .439.505.505 0 01-.12.237.47.47 0 01-.24.123l-9.02 2.594a.523.523 0 01-.52 0l-34.93-37.877-1.68 9.1 28.38 30.852c.05.073.07.156.07.24 0 .084-.02.167-.07.239a.339.339 0 01-.11.204.488.488 0 01-.2.116l-9.11 2.634.08-.239zm-27.94-31.691l28.18 30.653 7.99-2.315-27.95-30.454a.818.818 0 010-.439l1.92-10.297a.422.422 0 01.12-.255.472.472 0 01.24-.144.622.622 0 01.26-.055c.09 0 .18.018.26.055l35.41 38.396 7.98-2.275-42.43-45.74a.558.558 0 010-.439l1.91-10.298c.02-.09.07-.173.13-.24a.564.564 0 01.24-.14.515.515 0 01.51.141l49.74 54.042 8.5-2.435 7.59-40.951-28.43-30.613-8.54 2.435-5.67 30.773a.499.499 0 01-.12.231.53.53 0 01-.24.128.429.429 0 01-.24.071.48.48 0 01-.24-.071l-21.19-23.03-8.58 2.475-7.35 40.791zm66.19 10.816a.467.467 0 01-.18.039.398.398 0 01-.18-.039l-21.64-23.389a.678.678 0 010-.399l5.75-31.052c.02-.093.06-.18.12-.25.07-.07.15-.122.24-.149.08-.05.17-.077.26-.077s.18.027.26.077l21.31 23.548a.363.363 0 010 .399l-5.74 31.053a.457.457 0 01-.11.245.454.454 0 01-.21.154l.12-.16zm-20.84-23.948l20.52 22.312 5.51-29.815-20.52-22.312-5.51 29.815zM1053.96 304.347a.598.598 0 01-.36 0l-28.38-31.172a.374.374 0 01-.04-.18c0-.062.01-.123.04-.179l7.62-41.43a.575.575 0 01.12-.254.52.52 0 01.24-.145l9.14-2.634a.49.49 0 01.26-.076c.1 0 .19.026.26.076l20.72 22.511 5.55-30.015a.56.56 0 01.1-.212.543.543 0 01.18-.147l9.18-2.674a.513.513 0 01.48 0l28.5 30.972a.428.428 0 010 .439l-7.62 41.35a.443.443 0 01-.13.237.405.405 0 01-.23.122l-9.06 2.635a.557.557 0 01-.24.058c-.09 0-.17-.02-.24-.058l-49.22-53.444-1.68 9.06 42.55 46.26a.499.499 0 010 .479.383.383 0 01-.13.213.424.424 0 01-.23.106l-9.02 2.634a.562.562 0 01-.52 0l-34.93-37.877-1.67 9.1 28.38 30.853a.499.499 0 010 .478.474.474 0 01-.12.216.5.5 0 01-.2.144l-9.1 2.594-.2-.04zm-27.94-31.691l28.18 30.613 7.98-2.314-27.94-30.454a.678.678 0 010-.399l1.92-10.338a.473.473 0 01.12-.249.473.473 0 01.24-.15.533.533 0 01.51 0l35.41 38.357 7.99-2.275-42.44-45.701a.55.55 0 010-.399l1.92-10.337a.43.43 0 01.13-.231.454.454 0 01.23-.129.532.532 0 01.52 0l49.74 54.082 8.5-2.474 7.58-40.911-28.34-30.653-8.54 2.475-5.67 30.733a.562.562 0 01-.12.249.576.576 0 01-.24.15.429.429 0 01-.24.071.454.454 0 01-.24-.071l-21.2-22.99-8.58 2.474-7.42 40.871zm66.18 10.817a.613.613 0 01-.36 0l-21.35-23.23a.558.558 0 010-.439l5.74-31.052a.511.511 0 01.13-.231.54.54 0 01.23-.128.562.562 0 01.52 0l21.36 23.229a.428.428 0 010 .439l-5.75 31.013c0 .091-.04.179-.09.25a.46.46 0 01-.23.149h-.2zm-20.84-23.948l20.52 22.311 5.51-29.815-20.52-22.271-5.51 29.775zM1233.52 213.944a.597.597 0 01-.36 0l-28.55-31.172a.67.67 0 01-.04-.2c0-.069.02-.137.04-.199l7.63-41.43a.437.437 0 01.13-.231.445.445 0 01.23-.128l9.14-2.674c.08-.05.17-.077.26-.077s.18.027.26.077l20.72 22.511 5.55-30.015c0-.08.04-.155.08-.218a.474.474 0 01.19-.141l9.19-2.674a.485.485 0 01.24-.059c.08 0 .16.02.24.059l28.5 30.972a.428.428 0 010 .439l-7.63 41.39a.43.43 0 01-.13.231.445.445 0 01-.23.128l-9.06 2.595a.4.4 0 01-.48 0l-49.22-53.484-1.79 9.18 42.55 46.259a.5.5 0 010 .479.44.44 0 01-.36.32l-9.02 2.594a.532.532 0 01-.52 0l-34.93-37.878-1.68 9.101 28.39 30.852a.503.503 0 010 .479.422.422 0 01-.12.204.44.44 0 01-.2.116l-9.14 2.634.12-.04zm-27.95-31.691l28.19 30.613 7.98-2.315-27.94-30.453a.661.661 0 010-.439l1.91-10.298a.575.575 0 01.12-.254.467.467 0 01.24-.145.454.454 0 01.24-.071c.09 0 .17.025.24.071l35.45 38.356 7.98-2.275-42.15-45.86a.558.558 0 010-.439l1.91-10.297c.03-.09.07-.173.14-.242.06-.07.14-.123.22-.157a.622.622 0 01.26-.055c.09 0 .18.018.26.055l49.74 54.042 8.5-2.435 7.59-40.951-28.18-30.613-8.55 2.475-5.67 30.733a.499.499 0 01-.12.231.552.552 0 01-.23.128.523.523 0 01-.52 0l-21.16-22.99-8.58 2.435-7.87 41.15zm66.19 10.777a.466.466 0 01-.18.038.466.466 0 01-.18-.038L1250 169.8a.678.678 0 010-.399l5.75-31.052a.506.506 0 01.13-.231.445.445 0 01.23-.128.523.523 0 01.52 0l21.36 23.229a.54.54 0 01.05.219c0 .078-.02.153-.05.22l-5.75 31.012a.54.54 0 01-.1.246.53.53 0 01-.22.153l-.16-.039zm-20.84-23.948l20.52 22.311 5.51-29.815-20.52-22.311-5.51 29.815z"/><path d="M1274.99 357.91a.487.487 0 01-.36 0l-28.54-31.013a.471.471 0 01-.08-.259c0-.093.03-.184.08-.259l7.58-41.39a.588.588 0 01.13-.25c.06-.07.14-.122.23-.149l9.19-2.634a.612.612 0 01.51 0l20.68 22.51 5.55-30.014a.742.742 0 01.28-.319l9.18-2.675a.61.61 0 01.52 0l28.66 31.053a.501.501 0 010 .479l-7.66 41.349a.438.438 0 01-.28.36l-9.18 2.674a.557.557 0 01-.24.058c-.09 0-.17-.02-.24-.058l-49.22-53.444-1.72 9.061 42.56 46.259c.03.074.05.156.05.239 0 .084-.02.166-.05.24a.79.79 0 01-.12.215.694.694 0 01-.2.144l-9.07 2.594a.42.42 0 01-.47 0l-35.01-38.196-1.68 9.1 28.62 30.812a.508.508 0 010 .479.623.623 0 01-.36.36l-9.1 2.634-.24.04zm-27.94-31.691l28.18 30.613 7.98-2.315-27.94-30.453a.358.358 0 010-.4l1.88-10.337a.699.699 0 01.36-.399c.07-.05.16-.076.26-.076.09 0 .18.026.26.076l35.4 38.396 7.99-2.315-42.4-45.7a.356.356 0 01-.06-.2c0-.071.02-.14.06-.199l1.88-10.298a.562.562 0 01.12-.249.576.576 0 01.24-.15.562.562 0 01.52 0l49.62 54.202 8.5-2.475 7.59-40.91-28.19-30.654-8.5 2.475-5.71 30.733a.57.57 0 01-.12.25.574.574 0 01-.24.149.429.429 0 01-.24.071.454.454 0 01-.24-.071l-21.19-22.99-8.55 2.475-7.46 40.751zm66.18 10.816a.708.708 0 01-.36 0l-21.35-23.229a.426.426 0 010-.439l5.71-31.012c.01-.093.06-.18.12-.25s.15-.122.24-.149a.533.533 0 01.51 0l21.36 23.229c.06.141.06.298 0 .439l-5.75 31.052a.5.5 0 01-.13.223.598.598 0 01-.23.136h-.12zm-20.83-23.947l20.55 22.311 5.51-29.815-20.51-22.271-5.55 29.775zM1148.37 394.31a.716.716 0 01-.4 0l-28.54-31.052a.462.462 0 01-.05-.2c0-.069.02-.137.05-.199l7.62-41.43a.516.516 0 01.13-.231.452.452 0 01.23-.128l9.14-2.674a.523.523 0 01.52 0l20.72 22.471 5.51-29.975a.598.598 0 01.24-.359l9.22-2.634a.513.513 0 01.48 0l28.5 30.972a.5.5 0 010 .479l-7.66 41.31a.53.53 0 01-.28.359l-9.19 2.635a.495.495 0 01-.47 0l-49.22-53.484-1.68 9.1 42.55 46.259a.428.428 0 010 .44.505.505 0 01-.36.359l-9.02 2.594a.49.49 0 01-.26.076.49.49 0 01-.26-.076l-34.93-37.877-1.67 9.1 28.38 30.853a.499.499 0 010 .478.453.453 0 01-.14.208.463.463 0 01-.22.112l-9.1 2.634.16-.12zm-27.94-31.93l28.22 30.653 7.98-2.315-27.94-30.453a.428.428 0 010-.439l1.91-10.298c.01-.09.05-.175.11-.246.05-.07.13-.124.21-.153a.562.562 0 01.52 0l35.41 38.396 7.98-2.275-42.19-45.86a.425.425 0 010-.439l1.92-10.297c.01-.093.06-.18.12-.25s.15-.122.24-.15a.429.429 0 01.47 0l49.5 54.362 8.51-2.435 7.46-40.951-28.18-30.613-8.5 2.435-5.67 30.733a.489.489 0 01-.13.249.482.482 0 01-.23.15.49.49 0 01-.26.076.49.49 0 01-.26-.076l-21.16-23.03-8.58 2.475-7.46 40.751zm66.22 10.816a.392.392 0 01-.36 0l-21.36-23.349a.45.45 0 01-.05-.199c0-.07.02-.139.05-.2l5.75-31.052c.03-.09.07-.173.14-.242.06-.07.14-.123.22-.157a.445.445 0 01.48 0l21.4 23.229c.03.131.03.269 0 .399l-5.75 31.053a.422.422 0 01-.12.254.474.474 0 01-.24.145l-.16.119zm-20.84-23.947l20.52 22.311 5.51-29.815-20.52-22.311-5.51 29.815zM1243.02 484.753a.51.51 0 01-.4 0l-28.54-31.012a.45.45 0 010-.36l7.66-41.549a.54.54 0 01.1-.246c.06-.07.13-.123.22-.153l9.18-2.634a.596.596 0 01.52 0l20.72 22.511 5.51-30.015a.43.43 0 01.16-.189c.07-.049.15-.08.24-.09l9.06-2.635c.09-.019.19-.01.29.025.09.035.17.096.23.175l28.5 30.972c.03.118.03.242 0 .36l-7.79 41.27a.55.55 0 01-.14.2.56.56 0 01-.22.119l-9.1 2.634a.42.42 0 01-.24.071.471.471 0 01-.24-.071.664.664 0 010-.199l-49.14-53.324-1.67 9.06 42.55 46.259a.503.503 0 010 .479.787.787 0 01-.36.359l-9.02 2.595a.49.49 0 01-.26.076.49.49 0 01-.26-.076l-34.93-37.878-1.67 9.101 28.38 30.852c.03.075.05.157.05.24 0 .083-.02.164-.05.239a.63.63 0 01-.14.223.561.561 0 01-.22.136l-9.1 2.635.12-.16zm-27.95-31.691l28.23 30.613 7.98-2.315-27.94-30.453a.356.356 0 01-.06-.2c0-.071.02-.14.06-.199l1.91-10.338a.916.916 0 01.12-.233.677.677 0 01.2-.166.596.596 0 01.52 0l35.41 38.396 7.98-2.315-42.47-45.62a.426.426 0 010-.439l1.92-10.298a.474.474 0 01.11-.254.52.52 0 01.24-.145.557.557 0 01.24-.058c.09 0 .17.02.24.058l49.78 54.082 8.51-2.474 7.54-40.911-28.18-30.653-8.51 2.474-5.66 30.733a.586.586 0 01-.14.242.605.605 0 01-.22.158.5.5 0 01-.26.076.45.45 0 01-.26-.076l-21.16-22.99-8.58 2.474-7.55 40.831zm66.23 10.817a.53.53 0 01-.36 0l-21.4-23.23a.428.428 0 010-.439l5.75-31.012a.488.488 0 01.36-.399.513.513 0 01.48 0l21.4 23.229c.04.144.04.296 0 .439l-5.75 31.052a.514.514 0 01-.13.232.46.46 0 01-.23.128h-.12zm-20.84-23.948l20.24 22.231 5.51-29.775-20.36-22.111-5.39 29.655zM1180.42 267.547a.716.716 0 01-.4 0l-28.54-31.012a.376.376 0 01-.04-.18.37.37 0 01.04-.179l7.63-41.43c0-.092.03-.179.09-.251a.464.464 0 01.23-.148l9.18-2.634a.523.523 0 01.52 0l20.67 22.51 5.55-30.014c.03-.08.08-.152.14-.208a.461.461 0 01.22-.111l9.1-2.635a.597.597 0 01.24-.054c.09 0 .17.019.24.054l28.51 30.973a.54.54 0 01.05.219c0 .077-.02.153-.05.22l-7.67 41.35a.476.476 0 01-.12.215.5.5 0 01-.2.144l-9.14 2.634a.513.513 0 01-.48 0l-49.22-53.483-1.68 9.1 42.6 45.98a.499.499 0 010 .478.478.478 0 01-.15.201.522.522 0 01-.21.119l-9.02 2.634a.49.49 0 01-.26.076.49.49 0 01-.26-.076l-34.93-37.877-1.68 9.1 28.38 30.853a.499.499 0 010 .478.614.614 0 01-.14.217.604.604 0 01-.21.143l-9.11 2.594h.12zm-27.94-31.691l28.22 30.613 7.99-2.315-27.95-30.453a.428.428 0 010-.439l1.92-10.298c.01-.09.04-.175.1-.245a.483.483 0 01.22-.154.49.49 0 01.26-.076c.09 0 .18.026.26.076l35.41 38.356 7.98-2.275-42.19-45.859a.428.428 0 010-.44l1.91-10.297a.506.506 0 01.13-.231.445.445 0 01.23-.128.445.445 0 01.48 0l49.38 54.321 8.5-2.434 7.47-40.951-27.95-30.613-8.5 2.474-5.67 30.733a.693.693 0 01-.36.399.444.444 0 01-.26.077.492.492 0 01-.26-.077l-21.15-22.989-8.59 2.474-7.58 40.751zm66.23 10.777a.51.51 0 01-.4 0l-21.44-23.349a.428.428 0 010-.439l5.75-31.053a.437.437 0 01.13-.231.452.452 0 01.23-.128.429.429 0 01.24-.071c.08 0 .17.025.24.071l21.35 23.269c.04.144.04.296 0 .439l-5.74 31.013a.575.575 0 01-.12.254.52.52 0 01-.24.145v.08zm-20.84-23.948l20.52 22.311 5.51-29.815-20.52-22.271-5.51 29.775zM1465.05 538.197a.735.735 0 01-.4 0l-28.55-31.013a.537.537 0 01-.04-.179c0-.063.02-.124.04-.18l7.63-41.429a.422.422 0 01.12-.255.474.474 0 01.24-.145l9.14-2.634a.532.532 0 01.52 0l20.72 22.511 5.51-30.014s0-.28.24-.32l9.22-2.674a.53.53 0 01.24-.054c.08 0 .16.019.24.054l28.5 30.972a.428.428 0 010 .44l-7.67 41.389a.553.553 0 01-.14.201.574.574 0 01-.22.119l-9.1 2.634a.495.495 0 01-.24.058c-.08 0-.16-.02-.24-.058l-49.18-53.484-1.67 9.101 42.55 46.259a.501.501 0 010 .479.55.55 0 01-.14.2.64.64 0 01-.22.119l-9.02 2.634a.622.622 0 01-.26.055.622.622 0 01-.26-.055l-34.93-37.877-1.68 9.1 28.39 30.853a.501.501 0 010 .479.554.554 0 01-.14.208.47.47 0 01-.22.111l-9.1 2.634.12-.239zm-27.95-31.691l28.23 30.613 7.98-2.315-27.94-30.453a.428.428 0 010-.439l1.91-10.298a.665.665 0 01.11-.238c.06-.07.13-.125.21-.161.08-.05.17-.077.26-.077s.18.027.26.077l35.41 38.356 7.98-2.275-42.19-45.86a.425.425 0 010-.439l1.91-10.297a.514.514 0 01.13-.232.563.563 0 01.23-.128.557.557 0 01.24-.058c.09 0 .17.02.24.058l49.78 54.042 8.5-2.434 7.55-40.951-28.18-30.613-8.51 2.475-5.67 30.732a.715.715 0 01-.35.4.596.596 0 01-.52 0l-21.16-22.99-8.58 2.474-7.83 41.031zm66.23 10.776a.392.392 0 01-.36 0l-21.52-23.189a.426.426 0 010-.439l5.75-31.052a.514.514 0 01.13-.232.46.46 0 01.23-.128.525.525 0 01.48 0l21.4 23.23c.04.143.04.295 0 .439l-5.75 31.012a.58.58 0 01-.12.255.472.472 0 01-.24.144v-.04zm-20.84-23.947l20.52 22.311 5.23-29.536-20.52-22.271-5.23 29.496z"/><path d="M1444.13 465.675a.493.493 0 01-.2.04.493.493 0 01-.2-.04l-28.54-31.012a.448.448 0 010-.359l7.66-41.55c.01-.09.05-.175.1-.245a.542.542 0 01.22-.154l9.18-2.634a.596.596 0 01.52 0l20.72 22.511 5.51-29.975c.01-.08.04-.155.09-.218a.414.414 0 01.19-.141l9.18-2.674a.518.518 0 01.52.199l28.5 30.973c.03.117.03.242 0 .359l-7.66 41.39a.734.734 0 01-.15.2.522.522 0 01-.21.119l-9.11 2.634a.42.42 0 01-.47 0 .338.338 0 010-.199l-49.14-53.404-1.68 9.06 42.55 46.26a.499.499 0 010 .478.794.794 0 01-.36.36l-9.02 2.594a.49.49 0 01-.26.076.49.49 0 01-.26-.076l-34.93-37.997-1.67 9.1 28.38 30.853c.03.075.05.156.05.239 0 .083-.02.165-.05.24a.521.521 0 01-.14.223.561.561 0 01-.22.136l-9.1 2.634zm-27.94-31.691l28.22 30.614 7.98-2.315-27.94-30.414a.428.428 0 010-.439l1.91-10.338a.516.516 0 01.13-.231.552.552 0 01.23-.128.557.557 0 01.24-.058c.09 0 .17.02.24.058l35.41 38.396 7.98-2.314-42.19-45.821a.428.428 0 010-.439l1.92-10.297a.474.474 0 01.11-.255.501.501 0 01.25-.144.485.485 0 01.24-.059c.08 0 .16.02.23.059l49.38 54.321 8.51-2.474 7.54-40.911-28.26-30.613-8.5 2.434-5.67 30.733a.492.492 0 01-.13.25.488.488 0 01-.23.149.492.492 0 01-.26.077.492.492 0 01-.26-.077l-21.16-22.989-8.58 2.474-7.34 40.751zm66.22 10.817a.53.53 0 01-.36 0l-21.4-23.23a.537.537 0 01-.05-.219c0-.077.02-.153.05-.22l5.75-31.012a.584.584 0 01.12-.255.517.517 0 01.24-.144.544.544 0 01.24-.059c.09 0 .17.02.24.059l21.4 23.229c.04.144.04.296 0 .439l-5.75 31.052a.436.436 0 01-.13.232.452.452 0 01-.23.128h-.12zm-20.84-23.948l20.52 22.271 5.51-29.775-20.52-22.311-5.51 29.815zM1360.9 176.785a.483.483 0 01-.21-.055.458.458 0 01-.15-.144L1332 145.613a.501.501 0 010-.479l7.62-41.429c.02-.093.06-.18.12-.25.07-.07.15-.122.24-.149l9.14-2.635a.5.5 0 01.26-.076.5.5 0 01.26.076l20.72 22.471 5.55-29.974a.547.547 0 01.36-.32l9.1-2.634a.426.426 0 01.24-.07c.08 0 .17.024.24.07l28.5 30.973a.428.428 0 010 .439l-7.63 41.389a.493.493 0 01-.11.204.474.474 0 01-.21.116l-9.1 2.634a.443.443 0 01-.26.076.49.49 0 01-.26-.076l-49.22-53.483-1.67 9.1 42.59 46.379a.428.428 0 010 .439.437.437 0 01-.13.231.452.452 0 01-.23.128l-9.02 2.594a.523.523 0 01-.52 0l-34.93-37.877-1.67 9.1 28.38 30.853a.501.501 0 010 .479.42.42 0 01-.12.203.38.38 0 01-.2.116l-9.14 2.634v-.08zm-27.95-31.73l28.19 30.653 7.98-2.315-27.94-30.454a.556.556 0 01-.05-.219c0-.076.02-.15.05-.22l1.91-10.297a.58.58 0 01.12-.255.52.52 0 01.24-.145.557.557 0 01.24-.058c.09 0 .17.02.24.058l35.41 38.397 7.98-2.275-42.19-45.86a.818.818 0 010-.439l1.92-10.298c.02-.09.06-.173.13-.24a.48.48 0 01.23-.14.543.543 0 01.28.001c.09.024.17.073.23.14l49.74 54.042 8.51-2.435 7.58-40.951-28.18-30.613-8.55 2.435-5.66 30.773a.516.516 0 01-.13.231.552.552 0 01-.23.128.522.522 0 01-.52 0l-21.16-23.03-8.58 2.475-7.79 40.911zm66.19 10.816a.466.466 0 01-.18.038.466.466 0 01-.18-.038l-21.4-23.229a.678.678 0 010-.399l5.75-31.053c.03-.09.07-.173.13-.242a.65.65 0 01.23-.157.532.532 0 01.52 0l21.36 23.229c.03.061.05.13.05.2s-.02.139-.05.2l-5.75 31.052a.489.489 0 01-.13.249.482.482 0 01-.23.15h-.12zm-20.84-23.948l20.52 22.312 5.63-29.736-20.52-22.311-5.63 29.735zM1549.91 356.992a.716.716 0 01-.4 0l-28.54-31.012a.731.731 0 010-.36l7.67-41.549c0-.091.04-.179.09-.251a.464.464 0 01.23-.148l9.18-2.634a.597.597 0 01.52 0l20.67 22.511 5.55-30.015a.506.506 0 01.13-.231.54.54 0 01.23-.128l9.1-2.634a.473.473 0 01.24-.072c.09 0 .17.025.24.072a.18.18 0 010 .199l28.47 30.893c.03.117.03.242 0 .359l-7.67 41.39a.55.55 0 01-.14.2.56.56 0 01-.22.119l-9.1 2.634a.513.513 0 01-.48 0l-49.22-53.443-1.68 9.06 42.56 46.259a.5.5 0 01.07.24c0 .085-.03.168-.07.239a.78.78 0 01-.12.216.566.566 0 01-.2.143l-9.02 2.595a.5.5 0 01-.26.076.5.5 0 01-.26-.076l-34.93-37.878-1.72 9.1 28.42 30.853a.503.503 0 010 .479.5.5 0 01-.13.223.561.561 0 01-.22.136l-9.11 2.595.12-.16zm-27.94-31.691l28.18 30.613 7.99-2.315-27.95-30.453a.356.356 0 01-.06-.2c0-.071.02-.14.06-.199l1.92-10.338a.452.452 0 01.11-.241c.05-.07.13-.125.21-.158a.596.596 0 01.52 0l35.17 38.396 7.98-2.315-42.19-45.58a.356.356 0 01-.06-.2c0-.071.02-.14.06-.199l1.91-10.298a.584.584 0 01.12-.255.472.472 0 01.24-.144.558.558 0 01.24-.059c.08 0 .17.021.24.059l49.78 54.082 8.5-2.475 7.55-40.91-28.19-30.653-8.5 2.474-5.67 30.733a.565.565 0 01-.13.242.563.563 0 01-.23.157.444.444 0 01-.26.077.492.492 0 01-.26-.077l-21.15-22.99-8.58 2.475-7.55 40.751zm66.11 10.816a.716.716 0 01-.4 0l-21.36-23.229a.425.425 0 010-.439l5.75-31.012a.422.422 0 01.12-.255.472.472 0 01.24-.144.485.485 0 01.24-.059c.08 0 .16.02.24.059l21.39 23.229c.04.143.04.296 0 .439l-5.74 31.052a.506.506 0 01-.13.231.54.54 0 01-.23.128h-.12zm-20.84-23.947l20.52 22.311 5.51-29.815-20.52-22.112-5.51 29.616zM1487.56 140.744c-.12.03-.24.03-.36 0l-28.54-31.012a.555.555 0 010-.36l7.62-41.549c.02-.093.06-.18.13-.25.06-.07.14-.122.23-.149l9.18-2.634a.527.527 0 01.52 0l20.68 22.51 5.55-30.014c.03-.08.07-.152.14-.208a.47.47 0 01.22-.111l9.1-2.634a.45.45 0 01.24-.072c.09 0 .17.025.24.072l28.46 30.892c.04.117.04.242 0 .36l-7.66 41.389a.78.78 0 01-.12.216.672.672 0 01-.2.143l-9.14 2.634a.544.544 0 01-.24.059c-.09 0-.17-.02-.24-.059l-49.18-53.363-1.68 9.06 42.55 46.259c.05.071.08.155.08.24 0 .085-.03.168-.08.239a.342.342 0 01-.11.204.5.5 0 01-.2.116l-9.03 2.634a.443.443 0 01-.26.076.49.49 0 01-.26-.076l-34.92-37.878-1.72 9.101 28.42 30.852a.503.503 0 010 .479.633.633 0 01-.14.217.64.64 0 01-.22.142l-9.1 2.595.04-.12zm-27.94-31.691l28.18 30.613 7.98-2.315-27.94-30.453a.459.459 0 01-.05-.2c0-.07.02-.139.05-.199l1.88-10.338c.02-.09.07-.172.13-.242a.57.57 0 01.23-.157c.07-.05.16-.076.26-.076.09 0 .18.026.25.076l35.41 38.356 7.99-2.275-42.2-45.86a.456.456 0 01-.05-.2c0-.07.02-.138.05-.199l1.92-10.337a.466.466 0 01.1-.227c.06-.064.14-.11.22-.132.08-.05.17-.077.26-.077s.18.027.26.077l49.66 54.361 8.46-2.475 7.58-40.91-28.38-30.813-8.5 2.475-5.71 30.732a.537.537 0 01-.1.246.48.48 0 01-.22.154.492.492 0 01-.26.076.492.492 0 01-.26-.076l-21.16-22.99-8.58 2.474-7.46 40.911zm66.22 10.817a.735.735 0 01-.4 0l-21.35-23.23a.425.425 0 010-.439l5.75-31.012c0-.092.03-.18.09-.251a.48.48 0 01.22-.148.563.563 0 01.52 0l21.36 23.23c.06.14.06.297 0 .438l-5.75 31.012a.422.422 0 01-.12.255.436.436 0 01-.24.145h-.08zM1505 95.922l20.52 22.311 5.51-29.815-20.52-22.271-5.51 29.775z"/><path d="M1529.08 284.71a.424.424 0 01-.18.043.363.363 0 01-.18-.043l-28.47-31.172a.542.542 0 01-.04-.18c0-.062.02-.124.04-.179l7.63-41.55a.562.562 0 01.12-.249.576.576 0 01.24-.15l9.14-2.634c.08-.045.17-.07.26-.07s.18.025.26.07l20.72 22.471 5.55-29.975a.365.365 0 01.07-.247.4.4 0 01.2-.152l9.19-2.634a.35.35 0 01.22-.075c.08 0 .15.026.22.075l28.5 31.012c.04.103.04.217 0 .32l-7.67 41.349a.623.623 0 01-.36.36l-9.1 2.594a.53.53 0 01-.24.054.597.597 0 01-.24-.054l-49.22-53.483-1.67 9.06 42.55 46.259c.04.075.05.157.05.239 0 .083-.01.165-.05.24a.521.521 0 01-.14.223.561.561 0 01-.22.136l-9.02 2.595a.532.532 0 01-.52 0l-34.93-37.838-1.68 9.06 28.39 30.893a.425.425 0 010 .439.446.446 0 01-.13.237.405.405 0 01-.23.122l-9.1 2.634.04.2zm-27.95-31.691l28.23 30.653 7.98-2.315-27.94-30.453a.428.428 0 010-.439l1.91-10.338a.516.516 0 01.13-.231.452.452 0 01.23-.128.558.558 0 01.24-.059c.08 0 .17.021.24.059l35.41 38.396 7.98-2.315-42.19-45.82a.818.818 0 010-.439l1.91-10.297a.58.58 0 01.12-.255.517.517 0 01.24-.144.445.445 0 01.48 0l49.78 54.042 8.5-2.435 7.55-40.951-28.18-30.613-8.51 2.435-5.67 30.733a.462.462 0 01-.13.24.48.48 0 01-.23.14.543.543 0 01-.28-.001.472.472 0 01-.23-.14l-21.16-22.99-8.58 2.475-7.83 41.19zm66.23 10.816a.41.41 0 01-.18.043.38.38 0 01-.18-.043l-21.4-23.229a.546.546 0 01-.04-.219c0-.076.01-.15.04-.22l5.75-31.012a.488.488 0 01.36-.399.445.445 0 01.48 0l21.4 23.189c.03.067.05.143.05.22a.54.54 0 01-.05.219l-5.75 31.052a.514.514 0 01-.13.232.46.46 0 01-.23.128l-.12.039zm-20.84-23.947l20.52 22.311 5.51-29.815-20.52-22.311-5.51 29.815zM1497.06 411.553a.45.45 0 01-.18.039.45.45 0 01-.18-.039l-28.38-31.132a.582.582 0 010-.519l7.3-41.469a.58.58 0 01.12-.255.517.517 0 01.24-.144l9.15-2.635a.442.442 0 01.25-.076c.1 0 .19.027.26.076l20.72 22.471 5.55-29.974a.422.422 0 01.12-.204.386.386 0 01.2-.115l9.1-2.595a.454.454 0 01.24-.071c.09 0 .17.025.24.071l28.5 31.012a.428.428 0 010 .44l-7.62 41.349a.63.63 0 01-.14.223.563.563 0 01-.22.137l-9.06 2.594a.557.557 0 01-.24.058c-.09 0-.17-.02-.24-.058l-49.22-53.483-1.68 9.06 42.56 46.259c.03.075.05.157.05.239 0 .083-.02.165-.05.24a.516.516 0 01-.13.231.552.552 0 01-.23.128l-9.03 2.594a.42.42 0 01-.47 0l-34.97-37.837-1.68 9.06 28.38 30.893a.425.425 0 010 .439.468.468 0 01-.1.227.436.436 0 01-.22.132l-9.1 2.634h.16zm-27.94-31.691l28.18 30.654 7.98-2.315-27.94-30.454a.818.818 0 010-.439l1.92-10.337a.436.436 0 01.13-.232.46.46 0 01.23-.128.638.638 0 01.52 0l35.4 38.397 7.99-2.315-42.44-45.701a.661.661 0 010-.439l1.92-10.297c.02-.093.06-.18.12-.25.07-.07.15-.122.24-.149.08-.05.17-.077.26-.077s.18.027.26.077l49.74 54.042 8.5-2.435 7.58-40.951-28.18-30.613-8.54 2.435-5.67 30.733a.42.42 0 01-.12.254.467.467 0 01-.24.145.525.525 0 01-.48 0l-21.2-23.03-8.58 2.475-7.58 40.95zm66.18 10.817a.399.399 0 01-.18.038.466.466 0 01-.18-.038l-21.35-23.229a.56.56 0 010-.44l5.75-31.012a.471.471 0 01.11-.254.495.495 0 01.25-.145c.07-.05.16-.076.25-.076.1 0 .19.026.26.076l21.36 23.189a.428.428 0 010 .439l-5.87 31.093a.526.526 0 01-.1.241.532.532 0 01-.22.158l-.08-.04zm-20.83-23.948l20.51 22.311 5.55-29.815-20.56-22.311-5.5 29.815z"/><path d="M1455.31 266.589a.424.424 0 01-.18.043.363.363 0 01-.18-.043l-28.59-31.012a.552.552 0 010-.359l7.63-41.43a.422.422 0 01.12-.255.472.472 0 01.24-.144l9.14-2.634a.597.597 0 01.52 0l20.72 22.51 5.55-30.014a.541.541 0 01.35-.319l9.11-2.635a.495.495 0 01.24-.058c.08 0 .16.02.24.058l28.5 30.973a.501.501 0 010 .479l-7.67 41.35a.394.394 0 01-.11.222.459.459 0 01-.21.137l-9.14 2.634a.53.53 0 01-.24.054.597.597 0 01-.24-.054l-49.22-53.443-1.67 9.06 42.55 46.259a.501.501 0 010 .479.633.633 0 01-.14.217.656.656 0 01-.22.142l-9.02 2.594a.562.562 0 01-.52 0l-34.93-37.877-1.68 9.1 28.39 30.853a.501.501 0 010 .479.488.488 0 01-.36.359l-9.1 2.634.12-.359zm-27.95-31.691l28.19 30.613 7.98-2.315-27.94-30.453a.356.356 0 01-.06-.2c0-.071.02-.14.06-.199l1.91-10.338c.03-.09.07-.172.13-.242a.65.65 0 01.23-.157.562.562 0 01.48 0l35.41 38.396 7.98-2.314-42.19-45.86a.552.552 0 010-.4l1.91-10.297a.58.58 0 01.12-.255.517.517 0 01.24-.144.514.514 0 01.24-.064c.09 0 .17.022.24.064l49.78 54.082 8.5-2.475 7.59-40.911-28.22-30.653-8.51 2.475-5.67 30.733a.48.48 0 01-.12.25.488.488 0 01-.23.149.562.562 0 01-.52 0l-21.16-22.99-8.58 2.475-7.79 41.03zm66.19 10.817a.53.53 0 01-.36 0l-21.4-23.23a.546.546 0 01-.04-.219c0-.076.01-.15.04-.22l5.75-31.012a.422.422 0 01.12-.255.472.472 0 01.24-.144.445.445 0 01.48 0l21.4 23.189c.03.067.05.143.05.22a.54.54 0 01-.05.219l-5.75 31.052a.514.514 0 01-.13.232.452.452 0 01-.23.128l-.12.04zm-20.84-23.948l20.52 22.271 5.51-29.775-20.52-22.311-5.51 29.815z"/></g></svg>