<svg width="54" height="53" fill="none" xmlns="http://www.w3.org/2000/svg"><circle cx="26.747" cy="26.475" r="25.943" fill="#fff" stroke="#0181F4"/><path fill-rule="evenodd" clip-rule="evenodd" d="M14.539 16.87h24.416c.716 0 1.302.587 1.302 1.303v16.603c0 .716-.586 1.302-1.302 1.302H14.539a1.306 1.306 0 01-1.303-1.302V18.173c0-.716.586-1.302 1.303-1.302zm0 .977a.33.33 0 00-.326.326v1.628H39.28v-1.628a.33.33 0 00-.325-.325H14.539zm24.416 17.255a.33.33 0 00.325-.326V24.684H14.213v10.092c0 .176.15.326.326.326h24.416zM14.213 23.707H39.28v-2.93H14.213v2.93zm19.045 5.04a2.767 2.767 0 110 3.92 2.767 2.767 0 110-3.92zm.69 3.228a1.792 1.792 0 003.054-1.268 1.792 1.792 0 00-3.055-1.268.974.974 0 01-1.379 0 1.792 1.792 0 00-3.055 1.268 1.792 1.792 0 003.055 1.268.973.973 0 011.38 0zm-9.968-3.059h-7.814a.488.488 0 000 .977h7.814a.488.488 0 000-.977zm-7.814 2.279h3.582a.489.489 0 010 .977h-3.582a.489.489 0 010-.977z" fill="#0D181D"/></svg>