<svg width="16" height="17" fill="none" xmlns="http://www.w3.org/2000/svg"><path fill-rule="evenodd" clip-rule="evenodd" d="M12.65 4.888c.232 0 .298-.314.088-.41L4.56.854a.988.988 0 00-1.306.5L.39 7.774a.988.988 0 00.5 1.306l1.65.714a.314.314 0 00.442-.285V6.783c0-1.044.848-1.892 1.892-1.892h7.776v-.003zm2.14.89H4.87c-.553 0-1.001.448-1.001 1.002v7.006c0 .554.448 1.002 1.001 1.002h1.332a3.637 3.637 0 01.014-1.27H5.142v-3.354h9.38v3.35h-1.077a3.64 3.64 0 01.013 1.27h1.332c.553 0 1.002-.448 1.002-1V6.78c0-.554-.449-1.002-1.002-1.002zm-.268 2.32h-9.38v-1.05h9.38v1.05zM7.26 14.186a2.573 2.573 0 115.145 0 2.573 2.573 0 01-5.145 0zm2.883 1.29a.813.813 0 00.429-.276c.31-.376.19-.93-.243-1.168a3.639 3.639 0 00-.432-.196 1.047 1.047 0 01-.235-.135c-.14-.11-.111-.294.052-.366a.434.434 0 01.144-.03c.19-.01.37.023.543.108.085.04.115.027.144-.062.03-.083.054-.17.078-.257l.008-.027c.02-.066-.004-.108-.066-.135a1.425 1.425 0 00-.344-.101c-.078-.012-.118-.017-.137-.04-.02-.023-.02-.062-.02-.14 0-.111 0-.167-.027-.195-.028-.028-.084-.028-.195-.028h-.095c-.105.004-.121.02-.124.125v.14c0 .133-.004.135-.123.18l-.012.004c-.32.117-.52.333-.54.684-.02.31.141.52.396.67.11.068.23.116.35.164.048.02.097.039.145.06a.664.664 0 01.18.104c.16.13.13.35-.06.432a.588.588 0 01-.317.042c-.17-.02-.33-.065-.484-.144-.092-.045-.118-.036-.147.063-.027.081-.05.166-.072.252-.033.114-.02.14.088.193.137.065.285.101.435.124.118.02.125.026.125.147v.167c0 .069.032.111.104.111.082.004.164.004.246 0 .065 0 .101-.035.101-.104v-.079c.002-.05.002-.1 0-.15-.003-.079.03-.118.105-.138z" fill="#fff"/></svg>