<svg width="54" height="54" fill="none" xmlns="http://www.w3.org/2000/svg"><circle cx="26.747" cy="26.662" r="25.943" fill="#1C262A" stroke="#0181F4"/><path fill-rule="evenodd" clip-rule="evenodd" d="M32.52 18.088c0-2.322 1.795-4.186 4.066-4.186 2.27 0 4.093 1.835 4.093 4.158 0 2.322-1.85 4.186-4.093 4.186s-4.065-1.835-4.065-4.157zm.87-.028c0 1.806 1.43 3.269 3.196 3.269 1.766 0 3.196-1.434 3.196-3.24 0-1.807-1.43-3.27-3.196-3.27-1.738 0-3.196 1.434-3.196 3.24zm4.466.588c.005.023.011.046.02.071a.643.643 0 01.028.23c0 .114 0 .2-.028.286l-.084.259c-.023.033-.04.067-.057.1a.536.536 0 01-.084.129c-.056.086-.112.143-.168.2l-.07.051a.548.548 0 01-.154.093.98.98 0 01-.252.115h-.028v.602h-.673v-.574h-.056c-.084 0-.14 0-.225-.028a.786.786 0 00-.113-.027c-.042-.008-.08-.015-.111-.03a.51.51 0 01-.196-.058l-.025-.009h-.003a.33.33 0 00-.224-.02l-.085-.028v-.086l.056-.517.029-.2.168.086c.014 0 .028.007.042.014a.098.098 0 00.042.014c.014 0 .028.008.042.015.014.007.028.014.042.014a.385.385 0 00.084.029c.028.007.056.014.084.028.056.03.112.058.168.058.012 0 .028.005.048.01.027.009.06.018.093.018h.364c.033 0 .066-.01.093-.017a.193.193 0 01.047-.011c.014-.014.035-.022.056-.029a.138.138 0 00.056-.029c.056-.028.084-.057.113-.086l.084-.086a.22.22 0 00.056-.114v-.144a.35.35 0 00-.018-.095c-.006-.02-.01-.036-.01-.048-.011-.022-.018-.04-.023-.055a.15.15 0 00-.034-.06l-.084-.086c-.028 0-.056-.028-.084-.057a.14.14 0 00-.056-.029.139.139 0 01-.056-.028.21.21 0 00-.112-.058c-.056-.028-.14-.057-.224-.086-.017-.008-.037-.02-.058-.032a.974.974 0 00-.167-.082l-.043-.021a.497.497 0 01-.153-.094.504.504 0 01-.196-.144c-.028-.028-.05-.057-.07-.086-.021-.028-.042-.057-.07-.086-.014-.028-.035-.064-.056-.1a1.606 1.606 0 01-.056-.1.465.465 0 01-.065-.159c-.005-.022-.011-.045-.02-.07-.028-.087-.028-.144-.028-.23 0-.086 0-.2.029-.287l.084-.258a.582.582 0 01.112-.23c.056-.085.112-.143.168-.2a.502.502 0 01.196-.143.98.98 0 01.252-.115h.029v-.573h.672v.544h.029c.027 0 .049.007.07.015a.202.202 0 00.07.014c.032 0 .065.01.093.018.019.006.035.01.047.01.033 0 .056.01.075.019.014.005.025.01.037.01.014 0 .035.008.056.015a.211.211 0 00.056.014l.112.029v.114l-.056.46-.028.171-.14-.057a.098.098 0 01-.037-.01c-.02-.009-.042-.019-.075-.019a.21.21 0 01-.056-.014l-.036-.012a.083.083 0 00-.02-.003.195.195 0 01-.048-.01.328.328 0 00-.093-.018c-.056-.029-.084-.029-.14-.029h-.168c-.056 0-.084 0-.14.029a.212.212 0 00-.14.057l-.084.086c-.014.015-.021.036-.028.058a.146.146 0 01-.028.057c0 .014-.007.036-.014.057-.007.022-.014.043-.014.058v.143c0 .029 0 .086.028.115 0 .057.028.086.056.114l.084.086a.138.138 0 00.056.029c.02.007.042.014.056.029.014.014.035.021.056.028a.14.14 0 01.056.029.21.21 0 00.112.057c.056.029.14.058.224.086a.552.552 0 01.113.058c.035.021.07.043.112.057a.809.809 0 00.022.011l.021.01c.051.023.11.05.153.094.084.028.14.086.196.143.028.029.05.057.07.086.021.029.042.058.07.086.043.044.07.104.092.156l.02.045c.04.06.052.107.065.158zm-3.233 4.143c-.14-.2-.448-.23-.644-.086l-4.542 3.699-5.86-2.495a.439.439 0 00-.42.058l-6.28 4.587a.465.465 0 00-.113.631c.085.143.225.2.365.2a.446.446 0 00.252-.085l6.084-4.445 5.888 2.495c.14.057.336.029.448-.057l4.738-3.843c.197-.143.225-.458.084-.66zm4.486 15.713h2.075c.252 0 .449.2.42.459a.448.448 0 01-.448.459H12.335a.448.448 0 01-.449-.46c0-.257.196-.458.449-.458h2.102v-6.681c0-.258.197-.459.449-.459h4.15c.252 0 .448.201.448.459v6.681h1.514v-9.376c0-.258.196-.459.448-.459h4.122c.252 0 .448.2.448.459v9.376h1.514v-8.688c0-.258.197-.459.449-.459h4.15c.252 0 .448.2.448.459v8.688h1.514V25.228c0-.258.196-.459.448-.459h4.122c.252 0 .448.201.448.46v13.275zm-23.774 0h3.224v-6.222h-3.224v6.222zm6.56 0h3.224v-8.917h-3.224v8.917zm6.532 0h3.225v-8.23h-3.225v8.23zm6.561 0h3.224V25.687h-3.224v12.817z" fill="#fff"/></svg>