<svg width="15" height="17" fill="none" xmlns="http://www.w3.org/2000/svg"><path d="M10.425 16.758a1.222 1.222 0 00-1.222-1.222H6.958a1.574 1.574 0 01-.809-.222L.726 12.1a.863.863 0 01-.284-1.212l.01-.016a.89.89 0 01.06-.08l.02-.022a.84.84 0 01.051-.054l.019-.018a.865.865 0 01.075-.061l.012-.008a.88.88 0 01.164-.088l.02-.008c.03-.011.06-.021.09-.029l.02-.004a.891.891 0 01.183-.023h.017c.03 0 .06.002.09.005l.024.004a.847.847 0 01.163.039l.027.009c.03.011.059.024.088.039l3.372 1.787.1.053 1.03.546c.39.2.82.305 1.257.305h1.962a.29.29 0 00.29-.312.303.303 0 00-.212-.258l-2.339-.78a.77.77 0 01-.523-.81c.04-.398.394-.691.794-.691.498 0 .995.048 1.484.143l4.434.868a1.79 1.79 0 011.45 1.76v3.574h-4.25zM2.4 7.107h.63V9.98l2.272 1.204a1.984 1.984 0 012.003-1.977c.574 0 1.151.056 1.715.166l2.952.578V7.107h.785a.603.603 0 00.422-1.032L7.96.939a.602.602 0 00-.849.004L1.975 6.078a.602.602 0 00.426 1.029z" fill="#fff"/></svg>