<svg width="53" height="54" fill="none" xmlns="http://www.w3.org/2000/svg"><circle cx="26.546" cy="26.802" r="25.943" fill="#0D181D" stroke="#0181F4"/><path fill-rule="evenodd" clip-rule="evenodd" d="M34.052 14.893v1.709a12.342 12.342 0 00-7.506-2.56c-2.987 0-5.88 1.094-8.146 3.08l.544.646a11.537 11.537 0 017.602-2.875c2.383 0 4.698.752 6.643 2.127h-1.222v.85h2.502c.23 0 .416-.19.416-.425v-2.552h-.833zm-.957 10.332L31.55 23.65v-4.503a.421.421 0 00-.417-.425H28.63c-.23 0-.417.19-.417.425v1.1l-1.373-1.4a.41.41 0 00-.59 0l-6.255 6.38a.428.428 0 00-.122.3v8.932c0 .235.187.425.417.425h12.51c.23 0 .417-.19.417-.425v-8.932a.428.428 0 00-.123-.3zm-7.8 8.807v-4.678h2.502v4.678h-2.502zm7.089 0H28.63V28.93a.421.421 0 00-.417-.426h-3.336c-.23 0-.417.19-.417.426v5.103h-3.753v-8.33l5.838-5.955 1.79 1.826c.12.122.298.158.455.093a.426.426 0 00.257-.393v-1.701h1.668v4.253c0 .112.043.22.122.3l1.546 1.577v8.33zm5.456-4.204c-.071.28-.155.56-.247.835l.788.276c.1-.294.189-.595.266-.895l-.807-.216zm-.245-6.882l.789-.276c.099.294.188.596.265.896l-.807.215c-.072-.28-.155-.56-.247-.835zm.068-1.995l-.74.39c.13.26.253.525.364.79l.767-.334c-.12-.284-.25-.57-.39-.846zm-.742 11.316c.13-.257.253-.523.365-.79l.767.335c-.12.286-.252.57-.392.846l-.74-.392zm1.23-4.154c-.03.287-.072.577-.124.863l.82.155c.055-.306.1-.618.133-.925l-.829-.093zm-.123-3.48l.82-.153c.055.305.1.616.133.925l-.83.092c-.03-.288-.072-.579-.123-.864zm1.019 1.705l-.833.03a11.549 11.549 0 010 .875l.833.03a13.351 13.351 0 000-.935zm-24.936-.94c.033-.308.078-.619.134-.925l.82.155c-.052.285-.094.576-.125.863l-.829-.093zm.599-2.733c-.1.294-.189.595-.266.895l.807.216c.072-.28.156-.56.248-.835l-.79-.276zm.327 9.142l.767-.334c.111.265.234.53.365.79l-.74.39c-.141-.277-.273-.562-.392-.846zm-.159-5.446l-.833-.03a13.595 13.595 0 000 .935l.833-.03a11.54 11.54 0 010-.875zm.161-4.569c.12-.286.252-.57.392-.846l.74.391c-.13.257-.253.523-.365.79l-.767-.335zm-.1 6.314l-.828.093c.033.309.077.62.133.925l.82-.153a12.295 12.295 0 01-.124-.865zm-.496 1.932l.806-.215c.072.28.155.56.248.835l-.79.276c-.099-.294-.187-.596-.264-.896zm12.103 8.673c2.787 0 5.486-1.02 7.602-2.875l.544.645a12.364 12.364 0 01-8.146 3.08c-2.713 0-5.347-.904-7.506-2.559v1.709h-.834v-2.552c0-.235.187-.425.417-.425h2.502v.85h-1.223a11.513 11.513 0 006.644 2.127z" fill="#fff"/></svg>