<svg width="30" height="41" fill="none" xmlns="http://www.w3.org/2000/svg"><path fill-rule="evenodd" clip-rule="evenodd" d="M.665 14.337C.665 6.419 7.083 0 15 0c7.918 0 14.336 6.418 14.336 14.336v11.975c0 7.917-6.418 14.335-14.336 14.335C7.083 40.647.665 34.23.665 26.312V14.337zm4.46-.195c0-5.453 4.422-9.874 9.875-9.874 5.454 0 9.875 4.42 9.875 9.874v12.364c0 5.453-4.421 9.874-9.875 9.874-5.453 0-9.874-4.42-9.874-9.874V14.142zM15 7.673c1.207 0 2.185.978 2.185 2.185V20.6a2.184 2.184 0 01-4.37 0V9.858c0-1.207.979-2.185 2.185-2.185z" fill="#fff"/></svg>