<svg width="53" height="53" fill="none" xmlns="http://www.w3.org/2000/svg"><circle cx="26.546" cy="26.475" r="25.943" fill="#fff" stroke="#0181F4"/><path fill-rule="evenodd" clip-rule="evenodd" d="M31.65 13.715H21.442a2.13 2.13 0 00-2.127 2.127v21.266a2.13 2.13 0 002.127 2.126H31.65a2.13 2.13 0 002.126-2.126V15.842a2.13 2.13 0 00-2.126-2.127zm1.276 20.415H21.867v.851h11.059v2.127c0 .704-.572 1.276-1.276 1.276H21.442a1.276 1.276 0 01-1.276-1.276v-19.14h11.058v-.85H20.166v-1.276c0-.705.571-1.277 1.276-1.277H31.65c.705 0 1.276.572 1.276 1.277V34.13zm-5.955 2.127h-.85v.85h.85v-.85zm-3.828-20.84h.85v.85h-.85v-.85zm2.552 0h-.85v.85h.85v-.85zm-4.678 5.528v-1.7c0-.236.19-.426.425-.426h1.701v.85h-1.276v1.276h-.85z" fill="#0D181D"/></svg>