<svg width="17" height="17" fill="none" xmlns="http://www.w3.org/2000/svg"><path fill-rule="evenodd" clip-rule="evenodd" d="M8.144 3.609H4.645c-.452-1.014-1.214-1.853-1.364-2.017l-.026-.03a.444.444 0 01-.103-.505.467.467 0 01.431-.29c.844 0 1.303.3 1.668.543.328.225.581.393 1.143.393.563 0 .816-.168 1.144-.393.365-.244.824-.544 1.667-.544.188 0 .357.113.431.29a.444.444 0 01-.103.507l-.025.029c-.15.165-.912 1.003-1.364 2.017zm1.561 12.68v-.936c0-.26.21-.469.469-.469h5.653c.259 0 .469.21.469.469v.937c0 .258-.21.468-.469.468h-5.653a.469.469 0 01-.469-.468zm6.122-2.342c.259 0 .469-.21.469-.468v-.938a.469.469 0 00-.469-.468h-5.653a.469.469 0 00-.469.468v.938c0 .258.21.468.469.468h5.653zM7.828 5.483c.15 1.2.9 1.961 1.818 2.86l.002.002c.766.753 1.606 1.577 2.173 2.791h-1.678c-.775 0-1.406.63-1.406 1.405v3.749c0 .165.034.321.086.468H2.646c-1.265 0-2.323-1.012-2.342-2.249 0-3.382 1.508-4.863 2.839-6.165.918-.9 1.668-1.662 1.818-2.861h-.44a.464.464 0 01-.47-.469c0-.262.207-.468.47-.468h3.747c.263 0 .469.206.469.468a.464.464 0 01-.469.469h-.44zM7.8 12.54c0-.774-.63-1.405-1.406-1.405a.469.469 0 11.469-.468.468.468 0 10.937 0c0-.61-.393-1.126-.937-1.32v-.555a.468.468 0 10-.937 0v.555c-.544.194-.937.71-.937 1.32 0 .775.63 1.405 1.405 1.405a.469.469 0 11-.468.468.468.468 0 10-.937 0c0 .61.393 1.126.937 1.32v.555a.468.468 0 10.937 0v-.555c.544-.194.937-.71.937-1.32z" fill="#fff"/></svg>