<?xml version="1.0" encoding="utf-8"?>
<!-- Generator: Adobe Illustrator 22.1.0, SVG Export Plug-In . SVG Version: 6.00 Build 0)  -->
<svg version="1.1" id="Camada_1" xmlns="http://www.w3.org/2000/svg" xmlns:xlink="http://www.w3.org/1999/xlink" x="0px" y="0px"
	 viewBox="0 0 395 125" style="enable-background:new 0 0 395 125;" xml:space="preserve">
<style type="text/css">
	.st0{fill:url(#SVGID_1_);}
	.st1{fill:#202020;}
</style>
<g>
	<g>
		<linearGradient id="SVGID_1_" gradientUnits="userSpaceOnUse" x1="94.8435" y1="41.9063" x2="54.2034" y2="82.5464">
			<stop  offset="0" style="stop-color:#0086FF"/>
			<stop  offset="1" style="stop-color:#003C68"/>
		</linearGradient>
		<path class="st0" d="M102.6,62.2L102.6,62.2l-12.5-25l0,0h0h-6.3h0l0,0l-9.3,18.7l-9.3-18.7h0h-6.3h0h0l-7.4,14.8l-5.1,10.2h0l0,0
			l0,0h0l12.5,25h6.3l-12.5-25l3.1-6.2l15.6,31.1h6.2L58.9,49.7l3.1-6.2l9.4,18.7l0,0h0l12.5,25l0,0h0h6.3h0l0,0L102.6,62.2
			L102.6,62.2z M77.7,62.2L87,43.5l9.3,18.7h0L87,80.9L77.7,62.2z"/>
		<g>
			<path class="st1" d="M156.7,60.6v12.8h-7.9V61.8c0-3.2-1.3-4.6-3.4-4.6c-2.3,0-3.9,1.5-3.9,5v11.1h-7.9V61.8
				c0-3.2-1.3-4.6-3.4-4.6c-2.3,0-4,1.5-4,5v11.1h-7.9V51h7.5v2.4c1.7-1.8,4.1-2.7,6.7-2.7c3.1,0,5.7,1.1,7.2,3.5
				c1.8-2.2,4.6-3.5,7.8-3.5C152.8,50.6,156.7,53.6,156.7,60.6z"/>
			<path class="st1" d="M182.7,60.9v12.5h-7.3v-2.9c-1.1,2.2-3.4,3.3-6.6,3.3c-5.4,0-8.4-3-8.4-6.9c0-4.1,3-6.7,10-6.7h4.5
				c-0.1-2.3-1.7-3.6-4.8-3.6c-2.2,0-4.6,0.7-6.1,1.9l-2.6-5.3c2.6-1.7,6.4-2.6,9.9-2.6C178.5,50.6,182.7,53.8,182.7,60.9z
				 M174.8,66.2v-1.9h-3.4c-2.5,0-3.4,0.9-3.4,2.3c0,1.3,1.1,2.3,2.9,2.3C172.7,68.8,174.2,68,174.8,66.2z"/>
			<path class="st1" d="M212.1,51v18.3c0,8.5-4.8,12.5-13.2,12.5c-4.3,0-8.4-1-11.1-2.9l2.9-5.5c1.9,1.5,4.9,2.4,7.6,2.4
				c4.2,0,6-1.9,6-5.4v-0.7c-1.5,1.8-3.8,2.6-6.7,2.6c-6,0-11-4.2-11-10.8c0-6.6,5-10.8,11-10.8c3.1,0,5.5,1,7,3.1V51H212.1z
				 M204.3,61.4c0-2.7-2.1-4.6-4.9-4.6s-4.9,1.8-4.9,4.6c0,2.7,2.1,4.6,4.9,4.6S204.3,64.1,204.3,61.4z"/>
			<path class="st1" d="M238.2,60.9v12.5h-7.3v-2.9c-1.1,2.2-3.4,3.3-6.6,3.3c-5.4,0-8.4-3-8.4-6.9c0-4.1,3-6.7,10-6.7h4.5
				c-0.1-2.3-1.7-3.6-4.8-3.6c-2.2,0-4.6,0.7-6.1,1.9l-2.6-5.3c2.6-1.7,6.4-2.6,9.9-2.6C234,50.6,238.2,53.8,238.2,60.9z
				 M230.3,66.2v-1.9h-3.4c-2.5,0-3.4,0.9-3.4,2.3c0,1.3,1.1,2.3,2.9,2.3C228.2,68.8,229.7,68,230.3,66.2z"/>
			<path class="st1" d="M266.5,62.6c0,6.5-4.6,11-10.7,11c-3.9,0-7.2-1.9-8.9-5.3v5.1h-2V42.7h2.1v14c1.7-3.2,5-5.1,8.8-5.1
				C261.9,51.6,266.5,56.1,266.5,62.6z M264.5,62.6c0-5.4-3.8-9.1-8.7-9.1c-5,0-8.7,3.7-8.7,9.1s3.7,9.1,8.7,9.1
				C260.7,71.7,264.5,68,264.5,62.6z"/>
			<path class="st1" d="M288.5,59.7v13.7h-2v-3.8c-1.4,2.5-4,4-7.8,4c-4.8,0-7.8-2.5-7.8-6.2c0-3.3,2.1-6,8.1-6h7.4v-1.7
				c0-4-2.2-6.2-6.4-6.2c-3,0-5.7,1.1-7.4,2.7l-1-1.5c2.2-1.9,5.3-3.1,8.7-3.1C285.5,51.6,288.5,54.4,288.5,59.7z M286.4,67V63H279
				c-4.5,0-6,1.9-6,4.3c0,2.8,2.2,4.6,6,4.6C282.6,71.9,285.1,70.1,286.4,67z"/>
			<path class="st1" d="M316.3,60.8v12.6h-2.1V60.9c0-4.9-2.6-7.4-7-7.4c-5.1,0-8.2,3.3-8.2,8.4v11.5H297V51.8h2v4.7
				c1.4-3,4.5-4.8,8.6-4.8C312.8,51.6,316.3,54.7,316.3,60.8z"/>
			<path class="st1" d="M332.5,61.8l-5.6,5.1v6.4h-2.1V42.7h2.1v21.7l13.8-12.6h2.6l-9.3,8.7l10.2,12.9h-2.6L332.5,61.8z"/>
		</g>
	</g>
</g>
</svg>
